<svg width="423" height="35" viewBox="0 0 423 35" fill="none" xmlns="http://www.w3.org/2000/svg">
<path fill-rule="evenodd" clip-rule="evenodd" d="M157.981 4.25523C157.981 4.67364 157.811 4.84096 157.471 4.84096L158.066 5.67778H157.726L157.216 4.84096H156.876V5.67778H156.536V3.66945H157.216C157.726 3.66945 157.981 3.83682 157.981 4.25523ZM156.876 4.08785V4.7573H157.216C157.471 4.7573 157.726 4.7573 157.726 4.42255C157.726 4.17152 157.556 4.08785 157.301 4.08785H156.876Z" fill="#8C8C8C"/>
<path fill-rule="evenodd" clip-rule="evenodd" d="M157.215 3C156.196 3 155.431 3.75316 155.431 4.7573C155.431 5.76149 156.281 6.51465 157.215 6.51465C158.15 6.51465 159 5.76149 159 4.7573C159 3.75316 158.15 3 157.215 3ZM157.215 6.1799C156.366 6.1799 155.771 5.59412 155.771 4.7573C155.771 3.92048 156.366 3.33475 157.215 3.33475C157.98 3.33475 158.66 3.92048 158.66 4.7573C158.66 5.59412 158.065 6.1799 157.215 6.1799Z" fill="#8C8C8C"/>
<path d="M56.8516 9.02511C56.8516 12.2887 54.1322 14.8828 50.9029 14.8828H48.6084L56.9366 22.749H52.2626L40.5351 11.6193H50.9029C52.3476 11.6193 53.5373 10.4477 53.5373 9.02511C53.5373 7.60251 52.3476 6.43099 50.9029 6.43099H37.9856V22.749H34.3314V3.16737H50.9029C54.2172 3.16737 56.8516 5.84521 56.8516 9.02511Z" fill="#8C8C8C"/>
<path d="M58.0434 22.9163L69.9408 4.25528C70.7907 2.91634 72.8303 2.91634 73.5101 4.17157L85.4925 23H81.5834L71.7254 7.68622L67.5614 14.1297H75.2947L73.2552 17.3096H65.5218L61.9525 22.9163H58.0434Z" fill="#8C8C8C"/>
<path d="M111.326 3.25104H114.641V19.6527H128.748L126.623 22.8326H111.326V3.25104Z" fill="#8C8C8C"/>
<path d="M93.1409 6.43094H106.823L108.863 3.25104H93.056C87.5321 3.25104 83.9629 7.60251 83.9629 13.0418C83.9629 18.4812 87.6171 22.8326 93.056 22.8326H106.398L108.523 19.6527H93.1409C89.4017 19.6527 87.2772 16.7238 87.2772 13.0418C87.1922 9.44352 89.4017 6.43094 93.1409 6.43094Z" fill="#8C8C8C"/>
<path fill-rule="evenodd" clip-rule="evenodd" d="M9.17805 3.25104H23.2851C28.7239 3.25104 32.3781 7.60251 32.2932 13.0418C32.2932 18.4812 28.7239 22.8326 23.2001 22.8326H9.09308C3.65422 22.8326 0 18.4812 0 13.0418C0 7.60251 3.65422 3.25104 9.17805 3.25104ZM9.17805 19.6527H23.2851C26.9393 19.6527 29.1488 16.7238 29.1488 13.0418C29.1488 9.35981 27.0243 6.43094 23.2851 6.43094H9.17805C5.52383 6.43094 3.31429 9.35981 3.31429 13.0418C3.31429 16.7238 5.43887 19.6527 9.17805 19.6527Z" fill="#8C8C8C"/>
<path d="M138.009 6.43094H151.691L153.73 3.25104H137.924C132.4 3.25104 128.831 7.60251 128.831 13.0418C128.831 18.4812 132.485 22.8326 137.924 22.8326H151.266L153.391 19.6527H138.009C134.864 19.6527 132.825 17.477 132.315 14.6318H149.566L151.606 11.4519H132.315C132.825 8.6067 134.864 6.43094 138.009 6.43094Z" fill="#8C8C8C"/>
<path d="M213.588 8.166V25.6375H209.134V8.166H213.588Z" fill="#8C8C8C"/>
<path d="M243.191 21.5285V25.8101H242.605C241.249 25.8101 240.11 25.6892 239.207 25.4303C238.319 25.1713 237.582 24.757 237.03 24.17C236.477 23.583 236.075 22.8061 235.841 21.8566C235.607 20.8898 235.489 19.6813 235.489 18.2483V1.34661H239.96V8.166H243.191V12.1023H239.96V18.2138C239.96 18.9044 239.993 19.4741 240.06 19.9057C240.144 20.3546 240.295 20.6999 240.529 20.9416C240.763 21.1833 241.115 21.3559 241.584 21.425C241.986 21.494 242.538 21.5285 243.191 21.5285Z" fill="#8C8C8C"/>
<path d="M268.776 0V25.6375H264.305V0H268.776Z" fill="#8C8C8C"/>
<path d="M225.995 7.80346C228.205 7.80346 229.947 8.49403 231.186 9.87517C232.425 11.2563 233.061 13.2244 233.045 15.7105V25.6202H228.54V16.3493C228.54 14.9163 228.205 13.7942 227.569 13C226.916 12.2058 225.928 11.7915 224.639 11.7915C223.551 11.7915 222.596 12.2058 221.809 13.0345C221.073 13.8114 220.687 15.0199 220.637 16.66V25.6375H216.2V8.166H220.604V10.6693L220.855 10.3413C221.441 9.54714 222.194 8.92563 223.065 8.47676C223.953 8.02789 224.924 7.80346 225.995 7.80346Z" fill="#8C8C8C"/>
<path fill-rule="evenodd" clip-rule="evenodd" d="M261.358 13.328C261.777 14.4329 261.995 15.6069 261.995 16.8672V18.5073H248.683L248.734 18.6627C249.018 19.6813 249.554 20.51 250.341 21.0969C251.128 21.7012 252.166 21.9947 253.422 21.9947C255.431 21.9947 257.039 20.8725 257.709 20.0438L260.923 22.5644C259.516 24.2218 257.172 26 253.389 26C252.082 26 250.86 25.7583 249.755 25.2749C248.65 24.8088 247.696 24.1527 246.925 23.3413C246.155 22.5299 245.535 21.5631 245.1 20.4582C244.665 19.3533 244.447 18.162 244.447 16.9017C244.447 15.6414 244.665 14.4502 245.134 13.3453C245.586 12.2404 246.222 11.2736 247.009 10.4621C247.796 9.65074 248.734 9.01196 249.805 8.52856C250.877 8.06242 252.032 7.82072 253.254 7.82072C254.544 7.82072 255.733 8.04515 256.804 8.51129C257.876 8.97743 258.797 9.61621 259.567 10.4449C260.32 11.2736 260.923 12.2404 261.358 13.328ZM253.204 11.7397C250.14 11.757 248.717 13.9841 248.717 15.2616L257.709 15.2444C257.709 13.9668 256.268 11.7397 253.204 11.7397Z" fill="#8C8C8C"/>
<path fill-rule="evenodd" clip-rule="evenodd" d="M272.979 23.9973C272.895 24.0837 272.795 24.1355 272.66 24.1527L273.146 24.9814H272.778L272.309 24.1873H272.058V24.9814H271.706V23.0306H272.443C272.66 23.0306 272.845 23.0823 272.946 23.1859C273.063 23.2895 273.113 23.4276 273.113 23.6175C273.113 23.7902 273.063 23.911 272.979 23.9973ZM272.477 23.8765C272.527 23.8765 272.577 23.8592 272.627 23.842C272.66 23.8247 272.694 23.7902 272.728 23.7556C272.738 23.7353 272.747 23.7089 272.753 23.6764C272.758 23.654 272.761 23.6286 272.761 23.6003C272.761 23.5674 272.757 23.5385 272.751 23.5135C272.746 23.4859 272.736 23.463 272.728 23.4449C272.711 23.4104 272.677 23.3758 272.627 23.3586C272.577 23.3413 272.527 23.324 272.477 23.324H272.058V23.8765H272.477Z" fill="#8C8C8C"/>
<path fill-rule="evenodd" clip-rule="evenodd" d="M273.515 22.8234C273.665 22.9788 273.783 23.1514 273.867 23.3586C273.95 23.5657 274 23.7902 274 24.0146C274 24.2391 273.95 24.4635 273.867 24.6707C273.783 24.8778 273.665 25.0505 273.515 25.2058C273.364 25.3612 273.197 25.4821 272.995 25.5684C272.854 25.6292 272.713 25.6728 272.56 25.6934C272.495 25.702 272.429 25.7065 272.36 25.7065C272.142 25.7065 271.924 25.6547 271.723 25.5684C271.522 25.4821 271.355 25.3612 271.204 25.2058C271.053 25.0505 270.936 24.8778 270.853 24.6707C270.769 24.4635 270.719 24.2563 270.719 24.0146C270.719 23.7902 270.769 23.5657 270.853 23.3586C270.936 23.1514 271.053 22.9788 271.204 22.8234C271.355 22.668 271.522 22.5471 271.723 22.4608C271.842 22.4097 271.961 22.3707 272.088 22.3474C272.174 22.3313 272.264 22.3227 272.36 22.3227C272.577 22.3227 272.795 22.3745 272.995 22.4608C273.117 22.513 273.226 22.5779 273.327 22.6553C273.393 22.7059 273.455 22.762 273.515 22.8234ZM273.314 25.0159C273.431 24.8951 273.532 24.7397 273.598 24.5671C273.665 24.3944 273.715 24.2218 273.699 24.0146C273.699 23.8074 273.665 23.6348 273.598 23.4622C273.532 23.2895 273.431 23.1341 273.314 23.0133C273.197 22.8924 273.046 22.7888 272.878 22.7198C272.711 22.6507 272.527 22.6162 272.343 22.6162C272.246 22.6162 272.157 22.6242 272.072 22.6402C271.981 22.6574 271.894 22.684 271.807 22.7198C271.639 22.7888 271.488 22.8924 271.371 23.0133C271.254 23.1341 271.154 23.2895 271.087 23.4622C271.02 23.6348 270.986 23.8247 270.986 24.0146C270.986 24.2218 271.02 24.3944 271.087 24.5671C271.154 24.7397 271.254 24.8951 271.371 25.0159C271.488 25.1368 271.639 25.2404 271.807 25.3094C271.974 25.3785 272.158 25.413 272.343 25.413C272.434 25.413 272.519 25.4058 272.6 25.3914C272.696 25.3743 272.787 25.347 272.878 25.3094C273.046 25.2404 273.197 25.1368 273.314 25.0159Z" fill="#8C8C8C"/>
<path d="M209 0.362556H213.705V5.21381H209V0.362556Z" fill="#8C8C8C"/>
<path d="M353.584 30.8155C351.287 30.8155 349.455 28.9215 349.455 26.48H345.804C345.804 31.0227 349.229 34.5 353.584 34.5C357.94 34.5 361.365 31.0227 361.365 26.48H357.714C357.728 28.9363 355.896 30.8155 353.584 30.8155ZM361.238 13.3253V10.3215H356.178C355.36 10.0255 354.486 9.84797 353.599 9.84797C349.243 9.84797 345.818 13.3253 345.818 17.868C345.818 22.4107 349.243 25.8881 353.599 25.8881C357.954 25.8881 361.379 22.4107 361.379 17.868C361.379 16.3291 360.984 14.8346 360.195 13.71L361.238 13.3253ZM353.584 22.2332C351.287 22.2332 349.455 20.3095 349.455 17.8384C349.455 15.3821 351.287 13.5029 353.584 13.5029C355.91 13.5029 357.742 15.3969 357.742 17.868C357.756 20.3391 355.924 22.2332 353.584 22.2332ZM324 25.4442H327.594V3.91432H324V25.4442ZM336.784 9.84797C332.429 9.84797 329.004 13.3253 329.004 17.868C329.004 22.4107 332.429 25.8881 336.784 25.8881C341.139 25.8881 344.564 22.4107 344.564 17.868C344.564 13.3253 341.139 9.84797 336.784 9.84797ZM336.784 22.2332C334.472 22.2332 332.654 20.3095 332.654 17.8384C332.654 15.3821 334.486 13.5029 336.784 13.5029C339.109 13.5029 340.942 15.3969 340.942 17.868C340.942 20.3391 339.123 22.2332 336.784 22.2332ZM362.802 25.4442H366.396V10.3215H362.802V25.4442ZM399.871 13.5029C401.393 13.5029 402.619 14.3315 403.578 15.4857L406.072 12.8962C404.663 11.0317 402.45 9.86277 399.913 9.86277C395.558 9.86277 392.133 13.3401 392.133 17.8828C392.133 22.4255 395.558 25.9029 399.913 25.9029C402.436 25.9029 404.663 24.7191 406.072 22.8694L403.578 20.28C402.647 21.4045 401.379 22.2628 399.843 22.2628C397.531 22.2628 395.769 20.3687 395.769 17.8976C395.769 15.3821 397.545 13.5029 399.871 13.5029ZM422.239 8.54582C422.239 8.24988 422.042 8.1315 421.76 8.1315H421.309V9.49284H421.478V8.96014H421.76L422.07 9.49284H422.267L421.929 8.93055C422.126 8.90095 422.239 8.78258 422.239 8.54582ZM421.478 8.78258V8.30907H421.76C421.985 8.30907 422.07 8.39785 422.07 8.54582C422.07 8.69379 421.985 8.78258 421.76 8.78258H421.478ZM415.389 9.84797C413.613 9.84797 412.105 10.5582 411.034 11.7716V3.92912H407.44V25.459H411.034V17.2169C411.034 15.027 412.359 13.5325 414.543 13.5325C416.601 13.5325 417.715 14.8642 417.715 17.2169V25.4442H421.309V16.5363C421.323 12.3487 418.814 9.84797 415.389 9.84797ZM383.549 9.84797C379.222 9.84797 375.938 13.3253 375.938 17.9568C375.938 22.5291 378.94 25.8881 383.606 25.8881C386.185 25.8881 388.497 24.8819 390.188 23.0026L387.778 20.5019C386.594 21.6857 385.339 22.5439 383.704 22.5439C381.731 22.5439 380.251 21.3601 379.744 19.3921H390.949V18.4747C390.935 13.2957 387.905 9.84797 383.549 9.84797ZM379.645 16.2995C380.124 14.2871 381.59 13.1773 383.465 13.1773C385.354 13.1773 386.749 14.2723 387.2 16.2995H379.645ZM421.76 7.51002C421.055 7.51002 420.491 8.10191 420.491 8.81217C420.491 9.55203 421.055 10.1439 421.76 10.1439C422.436 10.1439 423 9.55203 423 8.81217C423 8.10191 422.436 7.51002 421.76 7.51002ZM421.76 9.96635C421.14 9.96635 420.66 9.46325 420.66 8.81217C420.66 8.19069 421.14 7.68759 421.76 7.68759C422.352 7.68759 422.831 8.19069 422.831 8.81217C422.831 9.46325 422.352 9.96635 421.76 9.96635ZM364.578 3.5C363.253 3.5 362.21 4.59499 362.21 6.00072C362.21 7.39165 363.253 8.47184 364.578 8.47184C365.959 8.47184 366.988 7.37685 366.988 6.00072C367.002 4.59499 365.959 3.5 364.578 3.5ZM373.486 5.66038H369.892V10.3215H367.947V13.6804H369.892V25.459H373.486V13.6804H375.459V10.3215H373.486V5.66038Z" fill="#8C8C8C"/>
</svg>
