<svg width="841" height="724" viewBox="0 0 841 724" fill="none" xmlns="http://www.w3.org/2000/svg">
<path d="M841 553.712H117V554.074H841V553.712Z" fill="#EBEBEB"/>
<path d="M768.457 577.019H720.496V577.381H768.457V577.019Z" fill="#EBEBEB"/>
<path d="M702.263 577.019H599.736V577.381H702.263V577.019Z" fill="#EBEBEB"/>
<path d="M543.194 563.573H515.404V563.935H543.194V563.573Z" fill="#EBEBEB"/>
<path d="M242.613 566.006H192.961V566.368H242.613V566.006Z" fill="#EBEBEB"/>
<path d="M345.784 566.006H255.504V566.368H345.784V566.006Z" fill="#EBEBEB"/>
<path d="M443.013 572.121H389.706V572.483H443.013V572.121Z" fill="#EBEBEB"/>
<path d="M460.196 489.134H180.589C176.032 489.134 172.324 485.426 172.324 480.869V87.8357C172.324 83.2788 176.032 79.5705 180.589 79.5705H460.196C464.752 79.5705 468.46 83.2788 468.46 87.8357V480.869C468.46 485.426 464.752 489.134 460.196 489.134ZM180.589 79.9339C176.23 79.9339 172.686 83.4786 172.686 87.8371V480.871C172.686 485.229 176.23 488.774 180.589 488.774H460.196C464.553 488.774 468.098 485.229 468.098 480.871V87.8357C468.098 83.4786 464.553 79.9325 460.196 79.9325L180.589 79.9339Z" fill="#EBEBEB"/>
<path d="M773.393 489.134H493.787C489.23 489.134 485.523 485.426 485.523 480.869V87.8357C485.523 83.2788 489.232 79.5705 493.787 79.5705H773.393C777.951 79.5705 781.658 83.2788 781.658 87.8357V480.869C781.659 485.426 777.951 489.134 773.393 489.134ZM493.787 79.9339C489.43 79.9339 485.885 83.4786 485.885 87.8371V480.871C485.885 485.229 489.43 488.774 493.787 488.774H773.393C777.751 488.774 781.296 485.229 781.296 480.871V87.8357C781.296 83.4786 777.751 79.9325 773.393 79.9325L493.787 79.9339Z" fill="#EBEBEB"/>
<path d="M346.863 130.139H206.851V516.316H346.863V130.139Z" fill="#F5F5F5"/>
<path d="M346.865 516.316H348.283L348.283 130.138H346.865L346.865 516.316Z" fill="#EBEBEB"/>
<path d="M333.354 144.87H220.363V501.584H333.354V144.87Z" fill="white"/>
<path d="M406.863 358.724L737.141 358.724V113.33L406.863 113.33L406.863 358.724Z" fill="#E6E6E6"/>
<path d="M401.751 358.724L732.03 358.724V113.33L401.751 113.33L401.751 358.724Z" fill="#F5F5F5"/>
<path d="M722.854 348.418V123.638L410.926 123.638L410.926 348.418L722.854 348.418Z" fill="white"/>
<path d="M414.791 348.419L414.791 123.639H410.927L410.927 348.419H414.791Z" fill="#E6E6E6"/>
<path d="M405.546 300.4L728.234 300.4V286.563L405.546 286.563V300.4Z" fill="#F5F5F5"/>
<g opacity="0.4">
<path d="M422.692 102.488H391.509V181.353H422.692V102.488Z" fill="#E6E6E6"/>
<path d="M422.691 175.015H438.148V102.486H422.691V175.015Z" fill="#F5F5F5"/>
<path d="M469.332 102.488H438.149V181.353H469.332V102.488Z" fill="#E6E6E6"/>
<path d="M469.331 175.015H484.788V102.486H469.331V175.015Z" fill="#F5F5F5"/>
<path d="M515.972 102.488H484.789V181.353H515.972V102.488Z" fill="#E6E6E6"/>
<path d="M515.971 175.015H531.428V102.486H515.971V175.015Z" fill="#F5F5F5"/>
<path d="M562.612 102.488H531.429V181.353H562.612V102.488Z" fill="#E6E6E6"/>
<path d="M562.612 175.015H578.069V102.486H562.612V175.015Z" fill="#F5F5F5"/>
<path d="M609.252 102.488H578.069V181.353H609.252V102.488Z" fill="#E6E6E6"/>
<path d="M609.252 175.015H624.709V102.486H609.252V175.015Z" fill="#F5F5F5"/>
<path d="M655.892 102.488H624.709V181.353H655.892V102.488Z" fill="#E6E6E6"/>
<path d="M655.892 175.015H671.349V102.486H655.892V175.015Z" fill="#F5F5F5"/>
<path d="M702.532 102.488H671.349V181.353H702.532V102.488Z" fill="#E6E6E6"/>
<path d="M702.532 175.015H717.989V102.486H702.532V175.015Z" fill="#F5F5F5"/>
<path d="M749.172 102.488H717.99V181.353H749.172V102.488Z" fill="#E6E6E6"/>
</g>
<path d="M411.985 553.713H450.629V409.785H411.985V553.713Z" fill="#E6E6E6"/>
<path d="M418.416 553.712H411.984V540.761H425.159L418.416 553.712Z" fill="#F0F0F0"/>
<path d="M690.051 553.713H728.695V409.785H690.051V553.713Z" fill="#E6E6E6"/>
<path d="M411.986 548.74H695.665V409.784H411.986V548.74Z" fill="#F0F0F0"/>
<path d="M416.974 454.05L690.675 454.05V415.943L416.974 415.943V454.05Z" fill="#E6E6E6"/>
<path d="M486.208 427.784H621.44C627.714 427.784 633.713 423.082 638.029 414.784H469.618C473.935 423.084 479.933 427.784 486.208 427.784Z" fill="#F0F0F0"/>
<path d="M689.232 553.712H695.664V540.761H682.489L689.232 553.712Z" fill="#F0F0F0"/>
<path d="M416.974 498.316L690.675 498.316V460.209L416.974 460.209V498.316Z" fill="#E6E6E6"/>
<path d="M486.208 472.051H621.44C627.714 472.051 633.713 467.349 638.029 459.049H469.618C473.935 467.349 479.933 472.051 486.208 472.051Z" fill="#F0F0F0"/>
<path d="M416.974 542.58H690.675V504.473L416.974 504.473V542.58Z" fill="#E6E6E6"/>
<path d="M486.208 516.316H621.44C627.714 516.316 633.713 511.615 638.029 503.316H469.618C473.935 511.615 479.933 516.316 486.208 516.316Z" fill="#F0F0F0"/>
<path d="M479 619.108C634.055 619.108 759.751 611.768 759.751 602.713C759.751 593.657 634.055 586.317 479 586.317C323.945 586.317 198.249 593.657 198.249 602.713C198.249 611.768 323.945 619.108 479 619.108Z" fill="#F5F5F5"/>
<path d="M652.588 594.453H651.035C650.43 594.453 649.912 593.922 649.806 593.193L640.271 526.835H647.511L653.826 592.753C653.914 593.658 653.335 594.453 652.588 594.453Z" fill="#407BFF"/>
<path opacity="0.3" d="M652.588 594.453H651.035C650.43 594.453 649.912 593.922 649.806 593.193L640.271 526.835H647.511L653.826 592.753C653.914 593.658 653.335 594.453 652.588 594.453Z" fill="black"/>
<path d="M672.453 594.453H670.901C670.295 594.453 669.777 593.922 669.671 593.193L660.136 526.835H667.376L673.691 592.753C673.779 593.658 673.2 594.453 672.453 594.453Z" fill="#407BFF"/>
<path opacity="0.3" d="M672.453 594.453H670.901C670.295 594.453 669.777 593.922 669.671 593.193L660.136 526.835H667.376L673.691 592.753C673.779 593.658 673.2 594.453 672.453 594.453Z" fill="black"/>
<path d="M561.765 594.453H563.317C563.922 594.453 564.441 593.922 564.546 593.193L574.081 526.835H566.841L560.527 592.753C560.44 593.658 561.019 594.453 561.765 594.453Z" fill="#407BFF"/>
<path opacity="0.3" d="M561.765 594.453H563.317C563.922 594.453 564.441 593.922 564.546 593.193L574.081 526.835H566.841L560.527 592.753C560.44 593.658 561.019 594.453 561.765 594.453Z" fill="black"/>
<path d="M541.9 594.453H543.452C544.057 594.453 544.575 593.922 544.681 593.193L554.216 526.835H546.976L540.662 592.753C540.575 593.658 541.154 594.453 541.9 594.453Z" fill="#407BFF"/>
<path opacity="0.3" d="M541.9 594.453H543.452C544.057 594.453 544.575 593.922 544.681 593.193L554.216 526.835H546.976L540.662 592.753C540.575 593.658 541.154 594.453 541.9 594.453Z" fill="black"/>
<path d="M516.156 448.173H564.924C573.576 418.126 604.711 394.419 636.594 394.419H636.597H652.434C685.808 394.419 707.345 420.388 700.541 452.422C699.291 458.302 697.167 463.975 694.335 469.324L686.643 515.941C685.651 521.958 680.85 526.835 675.922 526.835H529.131C524.202 526.835 519.402 521.958 518.41 515.941L509.027 459.068C508.035 453.052 511.227 448.173 516.156 448.173Z" fill="#407BFF"/>
<path opacity="0.5" d="M516.156 448.173H564.924C573.576 418.126 604.711 394.419 636.594 394.419H636.597H652.434C685.808 394.419 707.345 420.388 700.541 452.422C699.291 458.302 697.167 463.975 694.335 469.324L686.643 515.941C685.651 521.958 680.85 526.835 675.922 526.835H529.131C524.202 526.835 519.402 521.958 518.41 515.941L509.027 459.068C508.035 453.052 511.227 448.173 516.156 448.173Z" fill="white"/>
<path d="M503.946 577.284L516.025 582.827C516.464 583.029 516.657 583.486 516.486 583.928L512.685 593.754C512.291 594.773 510.93 595.284 509.925 594.802C505.753 592.8 503.858 591.631 498.545 589.193C495.277 587.693 486.33 582.68 482.298 579.779C478.356 576.943 481.25 572.977 483.218 573.845C492.042 577.738 497.659 578.087 501.789 577.096C502.536 576.917 503.303 576.989 503.946 577.284Z" fill="#263238"/>
<path d="M589.592 429.228C589.592 429.228 512.372 430.188 511.179 460.626C509.464 504.379 503.003 577.024 503.003 577.024L516.025 582.826C516.025 582.826 538.84 509.926 539.655 475.758C561.32 470.361 617.22 475.803 623.788 457.995C629.162 443.427 626.256 429.228 626.256 429.228H589.592Z" fill="#407BFF"/>
<path opacity="0.2" d="M589.592 429.228C589.592 429.228 512.372 430.188 511.179 460.626C509.464 504.379 503.003 577.024 503.003 577.024L516.025 582.826C516.025 582.826 538.84 509.926 539.655 475.758C561.32 470.361 617.22 475.803 623.788 457.995C629.162 443.427 626.256 429.228 626.256 429.228H589.592Z" fill="black"/>
<path d="M606.027 349.145C605.355 351.954 604.678 354.489 603.9 357.117C603.14 359.721 602.344 362.311 601.508 364.895C599.812 370.052 597.946 375.175 595.79 380.245C593.651 385.323 591.261 390.358 588.347 395.323C586.876 397.803 585.306 400.288 583.443 402.713C581.581 405.139 579.472 407.556 576.715 409.819L576.501 409.994C576.35 410.117 576.19 410.236 576.03 410.341C574.19 411.553 572.476 411.926 571.172 412.085C569.846 412.233 568.769 412.172 567.875 412.062C566.044 411.837 564.7 411.423 563.44 410.987C560.96 410.104 558.925 409.09 556.96 408.041C553.061 405.942 549.602 403.592 546.205 401.207C542.838 398.786 539.597 396.281 536.449 393.678C533.32 391.03 530.255 388.414 527.269 385.536C525.511 383.84 525.461 381.041 527.155 379.283C528.575 377.811 530.77 377.536 532.479 378.483L532.55 378.523C535.967 380.417 539.415 382.425 542.873 384.293C546.316 386.199 549.749 388.083 553.187 389.845C556.598 391.63 560.062 393.287 563.362 394.65C564.998 395.318 566.64 395.895 567.975 396.195C568.624 396.341 569.226 396.416 569.384 396.383C569.483 396.381 569.412 396.325 569.074 396.348C568.756 396.38 568.03 396.473 567.02 397.12L566.335 397.643C567.567 396.478 568.874 394.855 570.084 393.025C571.293 391.189 572.476 389.192 573.573 387.091C575.758 382.869 577.712 378.316 579.516 373.661C581.3 368.992 582.968 364.215 584.513 359.382C586.085 354.596 587.516 349.573 588.822 344.886L588.871 344.709C590.185 339.995 595.072 337.238 599.785 338.551C604.39 339.831 607.122 344.537 606.027 349.145Z" fill="#263238"/>
<path d="M574.726 583.569H589.213C589.74 583.569 590.138 583.935 590.169 584.449L590.871 595.911C590.943 597.1 589.828 598.225 588.614 598.205C583.57 598.118 581.161 597.821 574.79 597.821C570.87 597.821 562.964 598.228 557.553 598.228C552.259 598.228 552.295 592.876 554.588 592.391C564.874 590.218 568.864 587.221 572.505 584.361C573.161 583.847 573.954 583.569 574.726 583.569Z" fill="#263238"/>
<path d="M610.405 429.228C610.405 429.228 540.362 435.143 542.085 465.558C543.972 498.864 574.724 583.569 574.724 583.569H588.889C588.889 583.569 576.765 505.998 572.503 472.086C592.245 472.086 638.032 475.803 644.6 457.995C649.974 443.427 647.068 429.228 647.068 429.228H610.405Z" fill="#407BFF"/>
<path d="M533.558 379.955C533.558 379.955 531.543 376.689 529.619 375.122C526.755 377.808 525.143 385.64 525.143 385.64L529.104 385.998C529.104 385.998 533.647 384.521 533.558 379.955Z" fill="#407BFF"/>
<path d="M519.021 372.918L514.517 370.962C513.307 370.436 511.896 370.886 511.214 372.016L509.081 375.55C508.465 376.568 508.61 377.873 509.434 378.733L515.617 385.184L525.93 384.767C527.116 384.719 528.183 384.037 528.723 382.98L529.915 380.655C530.66 379.198 530.252 377.372 528.886 376.47C525.544 374.257 519.021 372.918 519.021 372.918Z" fill="#FFC3BD"/>
<path d="M588.938 346.169C586.87 359.163 584.2 387.34 589.656 429.772L647.068 429.229C646.725 399.829 651.332 372.219 655.831 345.251C656.578 340.769 653.507 336.615 649.01 335.966C635.219 333.98 612.953 334.055 599.445 335.926C594.071 336.672 589.791 340.809 588.938 346.169Z" fill="#263238"/>
<path d="M656.355 341.585C658.039 345.765 659.396 349.782 660.783 353.923C662.157 358.038 663.365 362.216 664.506 366.435C665.602 370.668 666.652 374.938 667.453 379.325C668.258 383.714 668.967 388.171 669.214 392.9C669.29 394.073 669.312 395.288 669.327 396.503L669.305 398.359C669.269 399.668 669.079 401.656 667.865 403.782C667.292 404.812 666.391 405.867 665.456 406.594C664.967 406.997 664.496 407.296 664.02 407.557C663.516 407.845 663.071 408.035 662.635 408.196C660.863 408.843 659.495 408.928 658.383 408.935C656.202 408.893 654.706 408.517 653.312 408.142C650.595 407.353 648.417 406.388 646.296 405.376C644.198 404.342 642.227 403.249 640.3 402.128C632.643 397.588 625.752 392.53 619.065 386.927C617.194 385.361 616.949 382.575 618.516 380.704C619.837 379.127 622.025 378.706 623.8 379.551L623.901 379.6C631.389 383.168 638.998 386.822 646.418 389.896C648.268 390.659 650.116 391.374 651.913 391.971C653.685 392.583 655.471 393.112 656.861 393.323C657.518 393.43 658.119 393.417 658.052 393.354C657.994 393.336 657.687 393.28 656.901 393.549C656.714 393.62 656.513 393.708 656.232 393.852C655.99 393.986 655.744 394.148 655.447 394.37C654.929 394.777 654.377 395.416 654.047 395.98C653.355 397.181 653.322 398.093 653.3 398.352L653.218 397.042C653.138 396.15 653.061 395.253 652.929 394.325C651.939 386.9 649.845 378.992 647.524 371.219C645.197 363.452 642.536 355.512 639.824 347.967L639.796 347.892C638.141 343.286 640.532 338.211 645.138 336.554C649.632 334.94 654.58 337.196 656.355 341.585Z" fill="#263238"/>
<path d="M633.403 306.85L626.457 312.61L617 320.464C617.277 321.743 617.492 323.037 617.601 324.284C618.053 328.849 617.054 333.049 611.504 335.176C609.408 335.979 607.584 337.511 606.922 339.656C606.173 342.083 607.058 344.779 614.678 344.777C625.865 344.775 631.709 339.801 633.908 337.351C634.528 336.66 634.537 335.643 634.003 334.886C629.572 328.599 631.596 314.7 633.403 306.85Z" fill="#FFC3BD"/>
<path d="M614.404 342.316C614.404 342.316 615.148 343.121 615.373 344.285C615.955 343.301 617.471 342.316 617.471 342.316C617.471 342.316 620.792 343.793 621.483 347.015C619.355 346.88 615.461 344.776 615.461 344.776C615.461 344.776 613.447 345.94 611.433 346.03C611.524 343.524 614.404 342.316 614.404 342.316Z" fill="#407BFF"/>
<path d="M617.471 342.316C620.691 345.943 621.304 350.759 621.304 350.759C621.304 350.759 639.841 346.127 638.971 334.045C637.411 333.06 633.832 332.467 633.832 332.467C633.832 332.467 629.845 339.704 617.471 342.316Z" fill="#407BFF"/>
<path d="M614.404 342.316C611.183 345.943 610.323 350.759 610.323 350.759C610.323 350.759 600.816 342.106 610.077 334.145C611.706 333.474 614.977 333.117 614.977 333.117C614.977 333.117 608.825 338.108 614.404 342.316Z" fill="#407BFF"/>
<path opacity="0.2" d="M617.002 320.464C617.278 321.743 617.494 323.037 617.603 324.284C621.13 323.574 625.842 319.817 626.334 316.214C626.519 314.859 626.55 313.55 626.457 312.61L617.002 320.464Z" fill="black"/>
<path d="M606.853 281.907C598.133 288.09 603.012 302.594 610.449 297.044C617.888 291.494 613.959 276.868 606.853 281.907Z" fill="#263238"/>
<path d="M636.267 294.823C633.853 305.926 633.005 312.526 626.447 317.593C616.583 325.214 603.511 318.443 602.552 306.96C601.689 296.624 605.782 280.204 617.463 277.06C628.969 273.963 638.681 283.72 636.267 294.823Z" fill="#FFC3BD"/>
<path d="M631.127 286.594C624.971 284.893 609.101 288.932 603.467 282.923C597.425 276.478 606.241 273.345 608.838 275.583C605.548 271.824 606.777 267.796 611.434 268.154C614.83 268.414 615.913 272.182 615.913 272.182C615.913 272.182 615.345 265.598 621.188 266.051C626.493 266.462 626.509 273.616 626.509 273.616C626.509 273.616 639.172 270.035 643.391 282.12C651.358 281.94 651.179 298.709 635.157 304.677C628.651 301.453 628.351 290.014 631.127 286.594Z" fill="#263238"/>
<path d="M641.687 284.536C640.923 284.536 640.243 283.989 640.103 283.21C639.945 282.335 640.524 281.5 641.396 281.339C641.541 281.296 641.971 280.942 642.329 280.163C642.706 279.345 642.95 278.123 642.504 277.147C642.134 276.336 642.492 275.382 643.302 275.011C644.11 274.638 645.067 275 645.437 275.809C646.403 277.929 645.891 280.321 645.088 281.855C644.32 283.324 643.184 284.293 641.975 284.509C641.878 284.528 641.783 284.536 641.687 284.536Z" fill="#263238"/>
<path d="M638.074 305.117C636.445 307.255 634.063 308.525 631.977 308.893C628.838 309.446 627.883 306.559 629.272 303.754C630.522 301.23 633.659 297.901 636.561 298.622C639.421 299.332 639.937 302.671 638.074 305.117Z" fill="#FFC3BD"/>
<path d="M617.252 295.838C617.112 296.749 616.514 297.429 615.916 297.358C615.318 297.287 614.947 296.491 615.087 295.58C615.228 294.669 615.826 293.989 616.424 294.06C617.022 294.132 617.393 294.927 617.252 295.838Z" fill="#263238"/>
<path d="M606.916 294.61C606.776 295.521 606.178 296.201 605.58 296.13C604.982 296.06 604.611 295.263 604.752 294.352C604.892 293.442 605.49 292.761 606.088 292.832C606.686 292.903 607.057 293.699 606.916 294.61Z" fill="#263238"/>
<path d="M610.066 294.975C610.066 294.975 607.897 299.393 605.749 301.468C607.023 302.829 609.43 302.361 609.43 302.361L610.066 294.975Z" fill="#ED847E"/>
<path d="M613.66 307.041C617.288 307.041 619.316 304.779 619.408 304.674C619.507 304.562 619.495 304.391 619.384 304.293C619.272 304.193 619.101 304.206 619.003 304.317C618.98 304.344 616.673 306.921 612.653 306.439C612.504 306.42 612.371 306.527 612.354 306.676C612.336 306.824 612.442 306.959 612.591 306.976C612.959 307.021 613.316 307.041 613.66 307.041Z" fill="#263238"/>
<path d="M621.408 290.588C621.495 290.569 621.577 290.527 621.648 290.464C621.871 290.266 621.892 289.924 621.693 289.701C619.728 287.493 617.251 287.894 617.148 287.913C616.866 287.933 616.656 288.243 616.708 288.539C616.758 288.833 617.038 289.029 617.332 288.979C617.435 288.963 619.342 288.686 620.885 290.421C621.02 290.572 621.223 290.628 621.408 290.588Z" fill="#263238"/>
<path d="M603.225 289.994C603.392 290.042 603.577 290.008 603.721 289.89C605.612 288.317 607.556 288.837 607.575 288.843C607.863 288.924 608.162 288.756 608.241 288.468C608.322 288.181 608.156 287.884 607.869 287.802L607.866 287.8C607.765 287.771 605.351 287.125 603.028 289.057C602.798 289.248 602.768 289.588 602.957 289.819C603.031 289.907 603.125 289.965 603.225 289.994Z" fill="#263238"/>
<path d="M622.074 372.051L615.738 368.112C613.836 366.93 611.334 367.53 610.177 369.449L609.431 370.685C608.529 372.179 608.696 374.085 609.841 375.4L614.214 380.42C614.214 380.42 618.02 389.293 622.432 386.95L625.797 381.119L622.074 372.051Z" fill="#FFC3BD"/>
<path d="M628.602 383.396C628.602 383.396 627.007 379.476 625.29 377.492C622.107 380.219 619.53 388.911 619.53 388.911L623.422 389.749C623.422 389.749 628.121 388.574 628.602 383.396Z" fill="#407BFF"/>
<path d="M677.131 448.173H601.955C597.026 448.173 593.836 453.05 594.828 459.067L604.211 515.94C605.205 521.956 610.003 526.833 614.932 526.833H667.823L677.131 448.173Z" fill="#407BFF"/>
<path opacity="0.5" d="M677.131 448.173H601.955C597.026 448.173 593.836 453.05 594.828 459.067L604.211 515.94C605.205 521.956 610.003 526.833 614.932 526.833H667.823L677.131 448.173Z" fill="white"/>
<path d="M330.266 599.332H332.435C333.173 599.332 333.787 598.709 333.841 597.904L345.788 418.514H336.815L328.858 597.717C328.819 598.596 329.461 599.332 330.266 599.332Z" fill="#407BFF"/>
<path opacity="0.3" d="M330.266 599.332H332.435C333.173 599.332 333.787 598.709 333.841 597.904L345.788 418.514H336.815L328.858 597.717C328.819 598.596 329.461 599.332 330.266 599.332Z" fill="white"/>
<path d="M305.644 599.332H307.813C308.551 599.332 309.165 598.709 309.219 597.904L321.166 418.514H312.193L304.236 597.717C304.197 598.596 304.839 599.332 305.644 599.332Z" fill="#407BFF"/>
<path opacity="0.3" d="M305.644 599.332H307.813C308.551 599.332 309.165 598.709 309.219 597.904L321.166 418.514H312.193L304.236 597.717C304.197 598.596 304.839 599.332 305.644 599.332Z" fill="white"/>
<path d="M609.213 599.332H607.044C606.305 599.332 605.691 598.709 605.638 597.904L593.69 418.514H602.663L610.62 597.717C610.661 598.596 610.018 599.332 609.213 599.332Z" fill="#407BFF"/>
<path opacity="0.3" d="M609.213 599.332H607.044C606.305 599.332 605.691 598.709 605.638 597.904L593.69 418.514H602.663L610.62 597.717C610.661 598.596 610.018 599.332 609.213 599.332Z" fill="white"/>
<path d="M633.835 599.332H631.665C630.927 599.332 630.313 598.709 630.259 597.904L618.312 418.514H627.285L635.242 597.717C635.281 598.596 634.64 599.332 633.835 599.332Z" fill="#407BFF"/>
<path opacity="0.3" d="M633.835 599.332H631.665C630.927 599.332 630.313 598.709 630.259 597.904L618.312 418.514H627.285L635.242 597.717C635.281 598.596 634.64 599.332 633.835 599.332Z" fill="white"/>
<path d="M644.189 414.824H294.784V418.513H644.189V414.824Z" fill="#407BFF"/>
<path d="M288.962 357.684L285.663 381.965C284.622 390.051 283.534 398.157 282.755 406.116C282.645 407.117 282.573 408.094 282.492 409.077L282.372 410.551C282.382 410.443 282.373 410.053 282.321 409.827C282.298 409.593 282.224 409.339 282.153 409.138C282.105 408.962 282.004 408.762 281.936 408.631C281.885 408.516 281.791 408.384 281.735 408.304C281.478 407.975 281.451 408.019 281.519 408.09C281.575 408.171 281.781 408.33 282.011 408.503C282.498 408.854 283.183 409.251 283.93 409.625C287.002 411.128 290.801 412.408 294.562 413.571C302.16 415.876 310.131 417.87 318.006 419.811L317.115 426.728C308.688 426.43 300.415 425.647 292.004 424.129C287.783 423.327 283.605 422.45 279.099 420.722C277.961 420.273 276.793 419.765 275.523 419.045C274.881 418.675 274.228 418.259 273.501 417.674C272.784 417.083 272.007 416.407 271.19 415.21C270.786 414.606 270.395 413.879 270.096 412.994C269.948 412.548 269.835 412.039 269.752 411.555C269.686 411.074 269.66 410.427 269.667 410.062L269.703 408.455C269.728 407.383 269.745 406.306 269.797 405.255C270.14 396.794 270.901 388.539 271.803 380.284C272.685 372.029 273.737 363.849 275.032 355.627L288.962 357.684Z" fill="#7F3E3B"/>
<path d="M336.237 427.115L330.928 431.967C329.688 433.1 327.885 433.365 326.372 432.636L320.503 429.811C320.503 429.811 311.801 429.452 310.56 424.135L312.81 420.004L326.291 418.505C327.677 418.352 329.074 418.662 330.263 419.389L335.819 422.781C337.368 423.727 337.577 425.892 336.237 427.115Z" fill="#7F3E3B"/>
<path d="M304.444 307.793C305.821 316.122 306.989 331.341 301.032 336.695C301.032 336.695 315.573 344.308 325.108 357.597C335.306 349.517 326.766 337.461 326.766 337.461C317.599 334.982 318.04 328.137 319.84 321.751L304.444 307.793Z" fill="#7F3E3B"/>
<path d="M331.656 342.582C331.656 342.582 330.888 335.52 327.034 332.029C323.796 329.096 306.804 330.726 301.452 331.323C300.444 331.434 299.574 332.06 299.137 332.973L295.255 341.082L331.656 342.582Z" fill="#407BFF"/>
<path opacity="0.8" d="M331.656 342.582C331.656 342.582 330.888 335.52 327.034 332.029C323.796 329.096 306.804 330.726 301.452 331.323C300.444 331.434 299.574 332.06 299.137 332.973L295.255 341.082L331.656 342.582Z" fill="white"/>
<path d="M284.577 338.864C274.092 342.275 271.839 356.333 272.783 367.274L293.946 380.291C293.946 380.291 299.085 364.314 299.041 355.784C298.995 346.703 291.697 336.547 284.577 338.864Z" fill="#407BFF"/>
<path d="M288.675 377.103C288.168 377.103 287.661 376.9 287.285 376.538C287.198 376.437 287.111 376.334 287.053 376.234C286.981 376.132 286.908 376.017 286.865 375.886C286.823 375.77 286.778 375.655 286.749 375.524C286.72 375.394 286.707 375.278 286.707 375.148C286.707 374.627 286.923 374.12 287.285 373.758C288.023 373.018 289.341 373.018 290.065 373.758C290.427 374.12 290.644 374.627 290.644 375.148C290.644 375.278 290.63 375.394 290.601 375.524C290.572 375.655 290.543 375.77 290.485 375.886C290.443 376.017 290.385 376.132 290.311 376.234C290.239 376.334 290.153 376.437 290.065 376.538C289.703 376.9 289.196 377.103 288.675 377.103Z" fill="white"/>
<path d="M284.606 375.77C284.606 375.77 284.606 375.77 284.62 375.77C283.868 375.481 283.39 374.771 283.361 374.004C282.796 374.511 281.971 374.67 281.232 374.322C280.508 373.989 280.074 373.251 280.088 372.498C279.495 372.976 278.655 373.076 277.945 372.686C277.237 372.31 276.859 371.557 276.917 370.804C276.294 371.238 275.455 371.296 274.761 370.876C273.833 370.326 273.543 369.11 274.095 368.183C274.66 367.256 275.876 366.952 276.801 367.517C277.453 367.922 277.787 368.646 277.742 369.356C278.322 368.936 279.118 368.864 279.799 369.226C280.465 369.588 280.856 370.281 280.841 371.005C281.393 370.558 282.189 370.44 282.883 370.759C283.578 371.078 283.999 371.758 284.027 372.468C284.563 372.006 285.33 371.832 286.054 372.106C287.052 372.511 287.56 373.655 287.154 374.656C286.85 375.436 286.112 375.899 285.33 375.899C285.084 375.901 284.852 375.856 284.606 375.77Z" fill="white"/>
<path d="M272.79 369.24C272.66 369.24 272.53 369.226 272.398 369.197C272.268 369.168 272.152 369.139 272.036 369.081C271.906 369.037 271.79 368.979 271.69 368.907C271.588 368.835 271.486 368.749 271.4 368.661C271.299 368.574 271.226 368.473 271.154 368.371C271.082 368.255 271.024 368.141 270.966 368.025C270.922 367.909 270.878 367.779 270.85 367.663C270.836 367.531 270.82 367.401 270.82 367.271C270.82 367.14 270.836 367.01 270.85 366.894C270.879 366.764 270.922 366.648 270.966 366.518C271.008 366.402 271.082 366.286 271.154 366.185C271.226 366.083 271.299 365.982 271.4 365.881C271.487 365.794 271.588 365.707 271.69 365.634C271.79 365.577 271.906 365.504 272.036 365.461C272.152 365.417 272.268 365.374 272.398 365.345C273.036 365.229 273.716 365.433 274.166 365.881C274.266 365.982 274.34 366.083 274.412 366.185C274.484 366.286 274.542 366.402 274.6 366.518C274.644 366.648 274.687 366.764 274.702 366.894C274.731 367.01 274.744 367.14 274.744 367.271C274.744 367.401 274.729 367.531 274.702 367.663C274.686 367.779 274.644 367.909 274.6 368.025C274.542 368.141 274.484 368.255 274.412 368.371C274.34 368.473 274.266 368.575 274.166 368.661C273.804 369.023 273.296 369.24 272.79 369.24Z" fill="white"/>
<path d="M351.24 359.292C350.354 371.335 347.674 391.617 341.074 425.76L284.399 424.074C285.886 403.154 283.642 387.554 278.514 350.94C277.579 344.258 282.383 338.147 289.096 337.455C292.735 337.08 296.868 336.77 301.031 336.693C310.582 336.517 318.404 336.446 326.766 337.459C329.527 337.795 332.38 338.23 335.103 338.694C344.989 340.383 351.976 349.292 351.24 359.292Z" fill="#407BFF"/>
<path d="M333.766 292.461C333.899 293.579 334.601 294.415 335.331 294.326C336.061 294.238 336.546 293.262 336.411 292.143C336.276 291.025 335.576 290.189 334.846 290.278C334.116 290.366 333.632 291.343 333.766 292.461Z" fill="#263238"/>
<path d="M334.532 290.379L337.124 289.283C337.124 289.283 335.998 291.546 334.532 290.379Z" fill="#263238"/>
<path d="M334.152 294.195C334.152 294.195 336.627 298.78 338.993 300.852C337.682 302.408 335.096 302.077 335.096 302.077L334.152 294.195Z" fill="#630F0F"/>
<path d="M333.902 282.658C334.028 282.471 334.054 282.224 333.951 282.005C333.795 281.675 333.399 281.535 333.069 281.691C329.766 283.259 329.32 286.281 329.303 286.409C329.254 286.771 329.507 287.104 329.869 287.153C330.23 287.202 330.563 286.95 330.613 286.59C330.628 286.49 330.998 284.14 333.637 282.887C333.748 282.833 333.838 282.752 333.902 282.658Z" fill="#263238"/>
<path d="M295.198 292.206C297.687 305.836 298.449 311.659 306.229 317.875C317.932 327.226 334.128 321.188 335.762 307.089C337.234 294.399 332.916 274.241 318.821 270.386C304.933 266.591 292.709 278.576 295.198 292.206Z" fill="#7F3E3B"/>
<path d="M325.215 296.023C327.513 303.512 332.988 321.62 320.893 325.651C311.432 328.805 281.808 331.327 278.398 313.97C274.871 296.022 290.874 283.249 290.874 283.249C290.874 283.249 278.196 272.85 286.319 261.523C296.789 246.922 321.857 255.178 329.298 265.495C336.531 275.523 325.215 296.023 325.215 296.023Z" fill="#263238"/>
<path d="M302.288 328.141C297.437 328.141 291.42 327.151 286.465 325.02C279.738 322.122 275.811 317.645 275.11 312.073C272.732 293.146 290.344 282.745 290.524 282.644L291.225 283.857C291.055 283.956 274.241 293.906 276.502 311.898C277.304 318.281 282.664 321.857 287.02 323.732C295.618 327.435 306.726 327.415 309.422 325.438L310.25 326.569C308.847 327.596 305.889 328.141 302.288 328.141Z" fill="#263238"/>
<path d="M285.423 280.533C285.263 282.954 283.255 286.28 291.649 287.529C300.043 288.78 311.705 288.662 314.099 286.642C316.491 284.623 318.851 279.796 313.845 280.227C308.838 280.66 285.693 276.394 285.423 280.533Z" fill="#407BFF"/>
<path d="M320.635 298.159C322.07 300.886 324.63 302.696 327.061 303.408C330.718 304.478 332.593 301.22 331.615 297.745C330.736 294.617 327.775 290.291 324.087 290.745C320.454 291.193 318.995 295.042 320.635 298.159Z" fill="#7F3E3B"/>
<path d="M408.976 584.353L422.414 584.099L415.908 550.556L402.47 550.811L408.976 584.353Z" fill="#7F3E3B"/>
<path d="M419.053 569.749C422.608 583.136 435.671 597.307 435.671 597.307L417.026 592.569L408.876 580.99L410.303 577.924L419.053 569.749Z" fill="#7F3E3B"/>
<path d="M405.811 575.971C405.754 577.458 405.867 579.152 406.082 580.655C406.868 586.192 409.312 600.871 409.312 600.871L410.578 600.879C410.578 600.879 409.379 590.998 409.552 587.357C409.726 583.715 412.076 590.154 414.914 593.796C417.752 597.439 422.862 600.755 431.129 601.013C440.809 601.315 444.665 600.908 441.563 598.492C438.462 596.075 431.866 594.498 431.866 594.498C431.866 594.498 424.251 591.763 418.808 583.579C415.278 578.272 409.363 574.433 406.795 573.186C406.019 573.324 405.856 574.789 405.811 575.971Z" fill="#263238"/>
<path d="M456.566 538.788L473.719 539.318L454.535 510.795L442.657 520.947L456.566 538.788Z" fill="#7F3E3B"/>
<path d="M460.639 526.677C473.101 532.482 493.061 531.339 493.061 531.339L476.837 544.357L462.923 543.326L461.453 540.234L460.639 526.677Z" fill="#7F3E3B"/>
<path d="M458.001 541.467C459.058 542.528 460.371 543.599 461.608 544.46C466.159 547.629 478.445 555.75 478.445 555.75L479.233 554.759C479.233 554.759 471.237 548.941 468.67 546.313C466.104 543.685 472.283 546.242 476.709 546.501C481.137 546.762 486.727 545.011 492.022 538.685C498.221 531.278 500.304 527.967 496.615 528.753C492.925 529.539 487.694 533.649 487.694 533.649C487.694 533.649 480.982 537.767 471.612 536.449C465.536 535.595 459.065 537.621 456.563 538.788C456.187 539.493 457.161 540.622 458.001 541.467Z" fill="#263238"/>
<path d="M321.31 424.772C321.31 424.772 413.062 411.2 422.561 434.719C439.089 475.639 462.428 522.527 462.428 522.527L451.158 531.849C451.158 531.849 411.154 494.816 396.922 453.705C379.923 459.204 325.841 476.902 306.032 476.902C284.875 476.902 276.235 458.864 283.876 428.912C284.557 426.242 286.991 424.391 289.746 424.406C303.065 424.471 321.31 424.772 321.31 424.772Z" fill="#263238"/>
<path d="M330.105 436.72C330.105 436.72 405.408 434.452 406.044 461.132C407.095 505.251 419.529 568.47 419.529 568.47L405.793 569.749C405.793 569.749 383.336 519.461 377.395 476.363C350.571 478.104 325.841 476.902 306.032 476.902C283.833 476.902 281.998 452.522 303.607 424.076C316.814 424.076 330.105 436.72 330.105 436.72Z" fill="#263238"/>
<path d="M283.65 420.724L282.05 425.754C281.84 426.142 282.295 426.556 282.949 426.576L341.279 428.311C341.79 428.326 342.22 428.088 342.262 427.768L342.924 422.71C342.971 422.36 342.536 422.049 341.977 422.033L284.586 420.325C284.164 420.312 283.786 420.473 283.65 420.724Z" fill="white"/>
<path d="M291.167 427.37L289.629 427.324C289.324 427.315 289.095 427.15 289.121 426.957L290.037 420.388C290.063 420.195 290.337 420.046 290.643 420.055L292.18 420.1C292.486 420.108 292.715 420.273 292.689 420.466L291.772 427.036C291.746 427.23 291.474 427.379 291.167 427.37Z" fill="#263238"/>
<path d="M336.942 428.731L335.406 428.685C335.101 428.676 334.872 428.511 334.898 428.318L335.814 421.749C335.842 421.556 336.114 421.407 336.42 421.416L337.958 421.461C338.263 421.469 338.492 421.634 338.466 421.827L337.549 428.397C337.522 428.591 337.249 428.74 336.942 428.731Z" fill="#263238"/>
<path d="M314.055 428.051L312.519 428.004C312.214 427.996 311.985 427.83 312.011 427.638L312.927 421.068C312.953 420.876 313.227 420.727 313.533 420.735L315.07 420.782C315.376 420.79 315.605 420.955 315.579 421.148L314.662 427.718C314.633 427.91 314.361 428.059 314.055 428.051Z" fill="#263238"/>
<path d="M383.903 364.33H420.535C421.705 364.33 422.548 365.452 422.221 366.576L408.532 413.56C408.313 414.309 407.627 414.824 406.846 414.824H370.213C369.043 414.824 368.2 413.702 368.528 412.579L382.217 365.594C382.436 364.844 383.122 364.33 383.903 364.33Z" fill="#407BFF"/>
<path d="M384.579 366.054L420.182 366.899L406.124 411.215L370.519 410.369L384.579 366.054Z" fill="#E0E0E0"/>
<path d="M383.459 365.619L419.073 365.766L405.883 410.347L370.27 410.2L383.459 365.619Z" fill="white"/>
<path d="M351.349 366.541C351.42 367.953 351.554 369.709 351.683 371.314C351.826 372.954 352.006 374.596 352.223 376.229C352.629 379.501 353.172 382.738 353.843 385.901C354.54 389.053 355.361 392.144 356.43 395.032C356.962 396.478 357.55 397.876 358.196 399.195C358.509 399.87 358.864 400.492 359.214 401.118L359.743 402.008C359.698 401.949 359.635 401.946 359.685 401.997C359.785 402.224 360.807 402.878 361.991 403.346C363.205 403.838 364.654 404.251 366.163 404.594C369.2 405.292 372.504 405.747 375.846 406.09C382.534 406.742 389.521 407.066 396.367 407.207L397.058 414.145C389.909 415.524 382.827 416.394 375.471 416.585C371.794 416.668 368.076 416.603 364.182 416.122C362.232 415.863 360.241 415.517 358.119 414.897C356.001 414.228 353.715 413.463 351.192 411.322C350.575 410.798 349.947 410.117 349.375 409.357L348.442 408.054C347.859 407.194 347.281 406.325 346.777 405.444C345.723 403.689 344.83 401.894 344.045 400.085C342.449 396.47 341.252 392.809 340.306 389.133C339.348 385.461 338.657 381.772 338.152 378.077C337.91 376.227 337.713 374.376 337.555 372.517C337.39 370.621 337.293 368.871 337.271 366.771L351.349 366.541Z" fill="#7F3E3B"/>
<path d="M346.585 345.187C355.703 353.772 353.506 376.147 353.506 376.147L336.035 379.201C336.035 379.201 325.248 363.16 329.039 356.434C332.988 349.428 341.651 340.542 346.585 345.187Z" fill="#407BFF"/>
<path d="M353.502 378.116C352.994 378.116 352.474 377.899 352.112 377.537C352.023 377.45 351.938 377.349 351.866 377.233C351.808 377.133 351.734 377.017 351.692 376.901C351.648 376.785 351.603 376.655 351.576 376.523C351.561 376.409 351.547 376.277 351.547 376.147C351.547 375.627 351.751 375.119 352.113 374.757C352.213 374.67 352.301 374.583 352.417 374.511C352.517 374.438 352.633 374.38 352.75 374.337C352.881 374.279 352.996 374.25 353.127 374.221C353.751 374.091 354.43 374.308 354.895 374.757C355.257 375.119 355.474 375.627 355.474 376.147C355.474 376.277 355.459 376.409 355.432 376.523C355.402 376.655 355.374 376.785 355.316 376.901C355.273 377.017 355.215 377.133 355.142 377.233C355.07 377.349 354.983 377.45 354.896 377.537C354.53 377.898 354.022 378.116 353.502 378.116Z" fill="white"/>
<path d="M337.632 379.159C337.543 378.073 338.34 377.117 339.426 377.03C340.179 376.958 340.89 377.334 341.265 377.957C341.496 377.276 342.09 376.741 342.843 376.625C343.597 376.523 344.321 376.857 344.741 377.45C344.93 376.755 345.494 376.19 346.231 376.046C346.984 375.886 347.723 376.19 348.172 376.754C348.318 376.046 348.854 375.45 349.591 375.248V375.264C350.648 374.974 351.719 375.61 351.994 376.654C352.27 377.696 351.647 378.782 350.588 379.056C349.822 379.26 349.026 378.969 348.548 378.375C348.389 379.114 347.808 379.724 347.012 379.896C346.23 380.042 345.448 379.708 345.014 379.085C344.811 379.823 344.204 380.403 343.406 380.518C342.61 380.634 341.844 380.243 341.452 379.606C341.205 380.314 340.568 380.865 339.757 380.938C339.699 380.938 339.656 380.938 339.598 380.938C338.587 380.94 337.732 380.172 337.632 379.159Z" fill="white"/>
<path d="M336.039 381.172C335.909 381.172 335.778 381.156 335.648 381.128C335.518 381.099 335.402 381.056 335.286 381.012C335.156 380.969 335.054 380.896 334.938 380.838C334.837 380.766 334.736 380.679 334.649 380.592C334.549 380.504 334.475 380.404 334.403 380.288C334.33 380.187 334.272 380.071 334.214 379.955C334.171 379.825 334.128 379.709 334.113 379.579C334.084 379.463 334.071 379.333 334.071 379.202C334.071 379.072 334.086 378.942 334.113 378.81C334.129 378.694 334.171 378.564 334.214 378.448C334.272 378.332 334.33 378.218 334.403 378.102C334.475 378 334.549 377.898 334.649 377.812C334.737 377.725 334.837 377.638 334.938 377.566C335.054 377.494 335.156 377.436 335.286 377.392C335.402 377.334 335.518 377.304 335.648 377.276C336.284 377.146 336.966 377.349 337.414 377.812C337.516 377.899 337.588 378 337.661 378.102C337.733 378.218 337.791 378.332 337.849 378.448C337.892 378.564 337.937 378.694 337.965 378.81C337.979 378.942 337.995 379.072 337.995 379.202C337.995 379.333 337.979 379.463 337.965 379.579C337.936 379.709 337.892 379.825 337.849 379.955C337.791 380.071 337.733 380.187 337.661 380.288C337.588 380.39 337.516 380.504 337.414 380.592C337.052 380.954 336.546 381.172 336.039 381.172Z" fill="white"/>
<path d="M412.682 399.964L406.636 399.555C405.127 399.454 403.629 399.855 402.373 400.699L391.264 408.161L391.18 412.864C394.739 417.004 402.622 413.297 402.622 413.297L409.933 413.062C411.128 413.025 412.178 412.263 412.587 411.141L415.233 403.883C415.9 402.053 414.625 400.095 412.682 399.964Z" fill="#7F3E3B"/>
<path d="M287.267 605.852H288.908C289.548 605.852 290.097 605.29 290.207 604.521L300.285 534.382H292.632L285.958 604.056C285.866 605.012 286.478 605.852 287.267 605.852Z" fill="#407BFF"/>
<path opacity="0.3" d="M287.267 605.852H288.908C289.548 605.852 290.097 605.29 290.207 604.521L300.285 534.382H292.632L285.958 604.056C285.866 605.012 286.478 605.852 287.267 605.852Z" fill="black"/>
<path d="M266.27 605.852H267.911C268.551 605.852 269.098 605.29 269.209 604.521L279.287 534.382H271.635L264.961 604.056C264.87 605.012 265.482 605.852 266.27 605.852Z" fill="#407BFF"/>
<path opacity="0.3" d="M266.27 605.852H267.911C268.551 605.852 269.098 605.29 269.209 604.521L279.287 534.382H271.635L264.961 604.056C264.87 605.012 265.482 605.852 266.27 605.852Z" fill="black"/>
<path d="M383.265 605.852H381.625C380.985 605.852 380.436 605.29 380.326 604.521L370.248 534.382H377.901L384.574 604.056C384.667 605.012 384.055 605.852 383.265 605.852Z" fill="#407BFF"/>
<path opacity="0.3" d="M383.265 605.852H381.625C380.985 605.852 380.436 605.29 380.326 604.521L370.248 534.382H377.901L384.574 604.056C384.667 605.012 384.055 605.852 383.265 605.852Z" fill="black"/>
<path d="M404.263 605.852H402.622C401.982 605.852 401.435 605.29 401.323 604.521L391.245 534.382H398.898L405.572 604.056C405.665 605.012 405.052 605.852 404.263 605.852Z" fill="#407BFF"/>
<path opacity="0.3" d="M404.263 605.852H402.622C401.982 605.852 401.435 605.29 401.323 604.521L391.245 534.382H398.898L405.572 604.056C405.665 605.012 405.052 605.852 404.263 605.852Z" fill="black"/>
<path d="M431.474 451.237H379.925C370.779 419.477 337.871 394.419 304.17 394.419H304.166H287.427C252.151 394.419 229.385 421.868 236.579 455.726C237.899 461.942 240.145 467.939 243.138 473.592L251.267 522.866C252.317 529.225 257.391 534.38 262.599 534.38H417.755C422.965 534.38 428.039 529.225 429.087 522.866L439.006 462.75C440.057 456.392 436.685 451.237 431.474 451.237Z" fill="#407BFF"/>
<path opacity="0.5" d="M431.474 451.237H379.925C370.779 419.477 337.871 394.419 304.17 394.419H304.166H287.427C252.151 394.419 229.385 421.868 236.579 455.726C237.899 461.942 240.145 467.939 243.138 473.592L251.267 522.866C252.317 529.225 257.391 534.38 262.599 534.38H417.755C422.965 534.38 428.039 529.225 429.087 522.866L439.006 462.75C440.057 456.392 436.685 451.237 431.474 451.237Z" fill="white"/>
<path d="M424.746 220.307H412.921V221.755H424.746V220.307Z" fill="#407BFF"/>
<path d="M369.418 237.372H367.97V230.248C367.97 224.767 372.43 220.309 377.911 220.309H404.308V221.757H377.911C373.228 221.757 369.418 225.566 369.418 230.248V237.372Z" fill="#407BFF"/>
<path d="M509.931 286.892H377.912C375.222 286.892 373.04 284.71 373.04 282.02V230.248C373.04 227.558 375.222 225.375 377.912 225.375H509.931C512.621 225.375 514.803 227.558 514.803 230.248V282.02C514.803 284.71 512.621 286.892 509.931 286.892Z" fill="#407BFF"/>
<path d="M503.687 259.408H384.155C382.346 259.408 380.881 257.942 380.881 256.134C380.881 254.325 382.346 252.86 384.155 252.86H503.687C505.496 252.86 506.961 254.325 506.961 256.134C506.961 257.942 505.496 259.408 503.687 259.408Z" fill="white"/>
<path d="M478.107 273.003H384.155C382.346 273.003 380.881 271.538 380.881 269.729C380.881 267.921 382.346 266.455 384.155 266.455H478.107C479.915 266.455 481.38 267.921 481.38 269.729C481.379 271.538 479.914 273.003 478.107 273.003Z" fill="white"/>
<path d="M424.464 245.811H384.153C382.345 245.811 380.879 244.346 380.879 242.537C380.879 240.729 382.345 239.263 384.153 239.263H424.464C426.273 239.263 427.738 240.729 427.738 242.537C427.738 244.346 426.273 245.811 424.464 245.811Z" fill="white"/>
<path d="M477.898 245.811H437.587C435.779 245.811 434.313 244.346 434.313 242.537C434.313 240.729 435.779 239.263 437.587 239.263H477.898C479.707 239.263 481.172 240.729 481.172 242.537C481.172 244.346 479.707 245.811 477.898 245.811Z" fill="white"/>
<path d="M380.881 282.964V298.649C380.881 301.668 384.349 303.369 386.736 301.521L410.773 282.917L380.881 282.964Z" fill="#407BFF"/>
<path d="M584.433 147.7H452.415C449.723 147.7 447.542 149.882 447.542 152.573V204.345C447.542 207.035 449.724 209.217 452.415 209.217H556.707L575.609 223.846C577.995 225.694 581.465 223.993 581.465 220.973V209.216H584.435C587.125 209.216 589.307 207.034 589.307 204.343V152.573C589.306 149.882 587.124 147.7 584.433 147.7Z" fill="white"/>
<path d="M577.826 225.335C576.883 225.335 575.948 225.025 575.166 224.418L556.458 209.941H452.415C449.329 209.941 446.818 207.43 446.818 204.345V152.573C446.818 149.487 449.329 146.976 452.415 146.976H584.433C587.519 146.976 590.03 149.487 590.03 152.573V204.345C590.03 207.43 587.519 209.941 584.433 209.941H582.189V220.973C582.189 222.649 581.253 224.146 579.75 224.885C579.135 225.187 578.479 225.335 577.826 225.335ZM452.415 148.424C450.127 148.424 448.266 150.285 448.266 152.573V204.345C448.266 206.632 450.127 208.493 452.415 208.493H556.953L576.051 223.273C576.947 223.968 578.091 224.088 579.112 223.586C580.131 223.085 580.739 222.109 580.739 220.973V208.493H584.432C586.72 208.493 588.58 206.632 588.58 204.345V152.573C588.58 150.285 586.72 148.424 584.432 148.424H452.415Z" fill="#407BFF"/>
<path d="M515.602 181.733H578.191C579.999 181.733 581.465 180.267 581.465 178.459C581.465 176.65 579.999 175.185 578.191 175.185H515.602C513.794 175.185 512.328 176.65 512.328 178.459C512.328 180.267 513.794 181.733 515.602 181.733Z" fill="#407BFF"/>
<path d="M471.906 181.733H502.893C504.702 181.733 506.167 180.267 506.167 178.459C506.167 176.65 504.702 175.185 502.893 175.185H471.906C470.098 175.185 468.632 176.65 468.632 178.459C468.632 180.267 470.099 181.733 471.906 181.733Z" fill="#407BFF"/>
<path d="M484.239 195.329H578.191C579.999 195.329 581.465 193.864 581.465 192.055C581.465 190.247 579.999 188.782 578.191 188.782H484.239C482.43 188.782 480.965 190.247 480.965 192.055C480.965 193.863 482.43 195.329 484.239 195.329Z" fill="#407BFF"/>
<path d="M458.657 168.136H578.189C579.998 168.136 581.463 166.671 581.463 164.862C581.463 163.054 579.998 161.588 578.189 161.588H458.657C456.848 161.588 455.383 163.054 455.383 164.862C455.383 166.671 456.85 168.136 458.657 168.136Z" fill="#407BFF"/>
<g filter="url(#filter0_d_33959_1454)">
<rect x="5" y="91" width="262" height="78" rx="10" fill="white"/>
<path d="M24.4148 117H23.3068L26.5114 108.273H27.6023L30.8068 117H29.6989L27.0909 109.653H27.0227L24.4148 117ZM24.8239 113.591H29.2898V114.528H24.8239V113.591ZM33.0355 113.062V117H32.0298V110.455H33.0014V111.477H33.0866C33.2401 111.145 33.473 110.878 33.7855 110.676C34.098 110.472 34.5014 110.369 34.9957 110.369C35.4389 110.369 35.8267 110.46 36.1591 110.642C36.4915 110.821 36.75 111.094 36.9347 111.46C37.1193 111.824 37.2116 112.284 37.2116 112.841V117H36.206V112.909C36.206 112.395 36.0724 111.994 35.8054 111.707C35.5384 111.418 35.1719 111.273 34.706 111.273C34.3849 111.273 34.098 111.342 33.8452 111.482C33.5952 111.621 33.3977 111.824 33.2528 112.091C33.108 112.358 33.0355 112.682 33.0355 113.062ZM40.9755 117.153C40.5607 117.153 40.1843 117.075 39.8462 116.919C39.5082 116.76 39.2397 116.531 39.0408 116.233C38.842 115.932 38.7425 115.568 38.7425 115.142C38.7425 114.767 38.8164 114.463 38.9641 114.23C39.1119 113.994 39.3093 113.81 39.5565 113.676C39.8036 113.543 40.0763 113.443 40.3746 113.378C40.6758 113.31 40.9783 113.256 41.2823 113.216C41.68 113.165 42.0025 113.126 42.2496 113.101C42.4996 113.072 42.6815 113.026 42.7951 112.96C42.9116 112.895 42.9698 112.781 42.9698 112.619V112.585C42.9698 112.165 42.8548 111.838 42.6246 111.605C42.3974 111.372 42.0522 111.256 41.5891 111.256C41.109 111.256 40.7326 111.361 40.4599 111.571C40.1871 111.781 39.9954 112.006 39.8846 112.244L38.93 111.903C39.1005 111.506 39.3278 111.196 39.6119 110.974C39.8988 110.75 40.2113 110.594 40.5494 110.506C40.8903 110.415 41.2255 110.369 41.555 110.369C41.7653 110.369 42.0067 110.395 42.2795 110.446C42.555 110.494 42.8207 110.595 43.0763 110.749C43.3349 110.902 43.5494 111.134 43.7198 111.443C43.8903 111.753 43.9755 112.168 43.9755 112.688V117H42.9698V116.114H42.9187C42.8505 116.256 42.7369 116.408 42.5778 116.57C42.4187 116.732 42.207 116.869 41.9428 116.983C41.6786 117.097 41.3562 117.153 40.9755 117.153ZM41.1289 116.25C41.5266 116.25 41.8619 116.172 42.1346 116.016C42.4102 115.859 42.6175 115.658 42.7567 115.411C42.8988 115.163 42.9698 114.903 42.9698 114.631V113.71C42.9272 113.761 42.8335 113.808 42.6886 113.851C42.5465 113.891 42.3817 113.926 42.1942 113.957C42.0096 113.986 41.8292 114.011 41.6531 114.034C41.4798 114.054 41.3391 114.071 41.2312 114.085C40.9698 114.119 40.7255 114.175 40.4982 114.251C40.2738 114.325 40.092 114.437 39.9528 114.588C39.8164 114.736 39.7482 114.937 39.7482 115.193C39.7482 115.543 39.8775 115.807 40.136 115.986C40.3974 116.162 40.7283 116.25 41.1289 116.25ZM46.8168 108.273V117H45.8111V108.273H46.8168ZM49.3065 119.455C49.136 119.455 48.984 119.44 48.8505 119.412C48.717 119.386 48.6246 119.361 48.5735 119.335L48.8292 118.449C49.0735 118.511 49.2894 118.534 49.4769 118.517C49.6644 118.5 49.8306 118.416 49.9755 118.266C50.1232 118.118 50.2582 117.878 50.3803 117.545L50.5678 117.034L48.1474 110.455H49.2383L51.0451 115.67H51.1133L52.9201 110.455H54.011L51.2326 117.955C51.1076 118.293 50.9528 118.572 50.7681 118.794C50.5835 119.018 50.369 119.185 50.1246 119.293C49.8832 119.401 49.6104 119.455 49.3065 119.455ZM59.9748 111.92L59.0714 112.176C59.0146 112.026 58.9308 111.879 58.82 111.737C58.712 111.592 58.5643 111.473 58.3768 111.379C58.1893 111.286 57.9492 111.239 57.6566 111.239C57.256 111.239 56.9222 111.331 56.6552 111.516C56.391 111.697 56.2589 111.929 56.2589 112.21C56.2589 112.46 56.3498 112.658 56.5316 112.803C56.7134 112.947 56.9975 113.068 57.3839 113.165L58.3555 113.403C58.9407 113.545 59.3768 113.763 59.6637 114.055C59.9506 114.345 60.0941 114.719 60.0941 115.176C60.0941 115.551 59.9862 115.886 59.7702 116.182C59.5572 116.477 59.2589 116.71 58.8754 116.881C58.4918 117.051 58.0458 117.136 57.5373 117.136C56.8697 117.136 56.3171 116.991 55.8796 116.702C55.4421 116.412 55.1651 115.989 55.0487 115.432L56.0032 115.193C56.0941 115.545 56.266 115.81 56.5188 115.986C56.7745 116.162 57.1083 116.25 57.5202 116.25C57.989 116.25 58.3612 116.151 58.6367 115.952C58.9151 115.75 59.0543 115.509 59.0543 115.227C59.0543 115 58.9748 114.81 58.8157 114.656C58.6566 114.5 58.4123 114.384 58.0827 114.307L56.9918 114.051C56.3924 113.909 55.9521 113.689 55.6708 113.391C55.3924 113.089 55.2532 112.713 55.2532 112.261C55.2532 111.892 55.3569 111.565 55.5643 111.281C55.7745 110.997 56.06 110.774 56.4208 110.612C56.7844 110.45 57.1964 110.369 57.6566 110.369C58.3043 110.369 58.8129 110.511 59.1822 110.795C59.5543 111.08 59.8185 111.455 59.9748 111.92ZM61.608 117V110.455H62.6136V117H61.608ZM62.1193 109.364C61.9233 109.364 61.7543 109.297 61.6122 109.163C61.473 109.03 61.4034 108.869 61.4034 108.682C61.4034 108.494 61.473 108.334 61.6122 108.2C61.7543 108.067 61.9233 108 62.1193 108C62.3153 108 62.483 108.067 62.6222 108.2C62.7642 108.334 62.8352 108.494 62.8352 108.682C62.8352 108.869 62.7642 109.03 62.6222 109.163C62.483 109.297 62.3153 109.364 62.1193 109.364ZM69.092 111.92L68.1886 112.176C68.1317 112.026 68.0479 111.879 67.9371 111.737C67.8292 111.592 67.6815 111.473 67.494 111.379C67.3065 111.286 67.0664 111.239 66.7738 111.239C66.3732 111.239 66.0394 111.331 65.7724 111.516C65.5082 111.697 65.3761 111.929 65.3761 112.21C65.3761 112.46 65.467 112.658 65.6488 112.803C65.8306 112.947 66.1147 113.068 66.5011 113.165L67.4727 113.403C68.0579 113.545 68.494 113.763 68.7809 114.055C69.0678 114.345 69.2113 114.719 69.2113 115.176C69.2113 115.551 69.1033 115.886 68.8874 116.182C68.6744 116.477 68.3761 116.71 67.9925 116.881C67.609 117.051 67.163 117.136 66.6545 117.136C65.9869 117.136 65.4343 116.991 64.9968 116.702C64.5593 116.412 64.2823 115.989 64.1658 115.432L65.1204 115.193C65.2113 115.545 65.3832 115.81 65.636 115.986C65.8917 116.162 66.2255 116.25 66.6374 116.25C67.1062 116.25 67.4783 116.151 67.7539 115.952C68.0323 115.75 68.1715 115.509 68.1715 115.227C68.1715 115 68.092 114.81 67.9329 114.656C67.7738 114.5 67.5295 114.384 67.1999 114.307L66.109 114.051C65.5096 113.909 65.0692 113.689 64.788 113.391C64.5096 113.089 64.3704 112.713 64.3704 112.261C64.3704 111.892 64.4741 111.565 64.6815 111.281C64.8917 110.997 65.1772 110.774 65.538 110.612C65.9016 110.45 66.3136 110.369 66.7738 110.369C67.4215 110.369 67.93 110.511 68.2994 110.795C68.6715 111.08 68.9357 111.455 69.092 111.92ZM74.7479 119.455C74.5774 119.455 74.4254 119.44 74.2919 119.412C74.1584 119.386 74.0661 119.361 74.0149 119.335L74.2706 118.449C74.5149 118.511 74.7308 118.534 74.9183 118.517C75.1058 118.5 75.272 118.416 75.4169 118.266C75.5646 118.118 75.6996 117.878 75.8217 117.545L76.0092 117.034L73.5888 110.455H74.6797L76.4865 115.67H76.5547L78.3615 110.455H79.4524L76.674 117.955C76.549 118.293 76.3942 118.572 76.2095 118.794C76.0249 119.018 75.8104 119.185 75.5661 119.293C75.3246 119.401 75.0518 119.455 74.7479 119.455ZM83.2045 117.136C82.6136 117.136 82.0952 116.996 81.6491 116.714C81.206 116.433 80.8594 116.04 80.6094 115.534C80.3622 115.028 80.2386 114.437 80.2386 113.761C80.2386 113.08 80.3622 112.484 80.6094 111.976C80.8594 111.467 81.206 111.072 81.6491 110.791C82.0952 110.51 82.6136 110.369 83.2045 110.369C83.7955 110.369 84.3125 110.51 84.7557 110.791C85.2017 111.072 85.5483 111.467 85.7955 111.976C86.0455 112.484 86.1705 113.08 86.1705 113.761C86.1705 114.437 86.0455 115.028 85.7955 115.534C85.5483 116.04 85.2017 116.433 84.7557 116.714C84.3125 116.996 83.7955 117.136 83.2045 117.136ZM83.2045 116.233C83.6534 116.233 84.0227 116.118 84.3125 115.888C84.6023 115.658 84.8168 115.355 84.956 114.98C85.0952 114.605 85.1648 114.199 85.1648 113.761C85.1648 113.324 85.0952 112.916 84.956 112.538C84.8168 112.161 84.6023 111.855 84.3125 111.622C84.0227 111.389 83.6534 111.273 83.2045 111.273C82.7557 111.273 82.3864 111.389 82.0966 111.622C81.8068 111.855 81.5923 112.161 81.4531 112.538C81.3139 112.916 81.2443 113.324 81.2443 113.761C81.2443 114.199 81.3139 114.605 81.4531 114.98C81.5923 115.355 81.8068 115.658 82.0966 115.888C82.3864 116.118 82.7557 116.233 83.2045 116.233ZM91.8306 114.324V110.455H92.8363V117H91.8306V115.892H91.7624C91.609 116.224 91.3704 116.507 91.0465 116.74C90.7227 116.97 90.3136 117.085 89.8192 117.085C89.4102 117.085 89.0465 116.996 88.7283 116.817C88.4102 116.635 88.1602 116.362 87.9783 115.999C87.7965 115.632 87.7056 115.17 87.7056 114.614V110.455H88.7113V114.545C88.7113 115.023 88.8448 115.403 89.1119 115.688C89.3817 115.972 89.7255 116.114 90.1431 116.114C90.3931 116.114 90.6474 116.05 90.9059 115.922C91.1673 115.794 91.386 115.598 91.5621 115.334C91.7411 115.07 91.8306 114.733 91.8306 114.324ZM94.6783 117V110.455H95.6499V111.443H95.718C95.8374 111.119 96.0533 110.857 96.3658 110.655C96.6783 110.453 97.0305 110.352 97.4226 110.352C97.4964 110.352 97.5888 110.354 97.6996 110.357C97.8104 110.359 97.8942 110.364 97.951 110.369V111.392C97.9169 111.384 97.8388 111.371 97.7166 111.354C97.5973 111.334 97.4709 111.324 97.3374 111.324C97.0192 111.324 96.7351 111.391 96.4851 111.524C96.2379 111.655 96.0419 111.837 95.897 112.07C95.755 112.3 95.6839 112.562 95.6839 112.858V117H94.6783ZM109.677 111H108.62C108.558 110.696 108.449 110.429 108.292 110.199C108.139 109.969 107.951 109.776 107.73 109.619C107.511 109.46 107.268 109.341 107.001 109.261C106.734 109.182 106.456 109.142 106.166 109.142C105.637 109.142 105.159 109.276 104.73 109.543C104.304 109.81 103.964 110.203 103.711 110.723C103.461 111.243 103.336 111.881 103.336 112.636C103.336 113.392 103.461 114.03 103.711 114.55C103.964 115.07 104.304 115.463 104.73 115.73C105.159 115.997 105.637 116.131 106.166 116.131C106.456 116.131 106.734 116.091 107.001 116.011C107.268 115.932 107.511 115.814 107.73 115.658C107.951 115.499 108.139 115.304 108.292 115.074C108.449 114.841 108.558 114.574 108.62 114.273H109.677C109.598 114.719 109.453 115.118 109.243 115.47C109.032 115.822 108.771 116.122 108.458 116.369C108.146 116.614 107.795 116.8 107.406 116.928C107.02 117.055 106.606 117.119 106.166 117.119C105.422 117.119 104.76 116.938 104.18 116.574C103.6 116.21 103.145 115.693 102.812 115.023C102.48 114.352 102.314 113.557 102.314 112.636C102.314 111.716 102.48 110.92 102.812 110.25C103.145 109.58 103.6 109.062 104.18 108.699C104.76 108.335 105.422 108.153 106.166 108.153C106.606 108.153 107.02 108.217 107.406 108.345C107.795 108.473 108.146 108.661 108.458 108.908C108.771 109.152 109.032 109.45 109.243 109.803C109.453 110.152 109.598 110.551 109.677 111ZM111.743 108.273L114.334 115.619H114.436L117.027 108.273H118.135L114.93 117H113.839L110.635 108.273H111.743Z" fill="#A9A7B6"/>
<path d="M24.142 146V137.273H25.7727V138.693H25.8807C26.0625 138.212 26.3598 137.837 26.7727 137.568C27.1856 137.295 27.6799 137.159 28.2557 137.159C28.839 137.159 29.3277 137.295 29.7216 137.568C30.1193 137.841 30.4129 138.216 30.6023 138.693H30.6932C30.9015 138.227 31.233 137.856 31.6875 137.58C32.142 137.299 32.6837 137.159 33.3125 137.159C34.1042 137.159 34.75 137.407 35.25 137.903C35.7538 138.4 36.0057 139.148 36.0057 140.148V146H34.3068V140.307C34.3068 139.716 34.1458 139.288 33.8239 139.023C33.5019 138.758 33.1174 138.625 32.6705 138.625C32.1174 138.625 31.6875 138.795 31.3807 139.136C31.0739 139.473 30.9205 139.907 30.9205 140.438V146H29.2273V140.199C29.2273 139.725 29.0795 139.345 28.7841 139.057C28.4886 138.769 28.1042 138.625 27.6307 138.625C27.3087 138.625 27.0114 138.71 26.7386 138.881C26.4697 139.047 26.2519 139.28 26.0852 139.58C25.9223 139.879 25.8409 140.225 25.8409 140.619V146H24.142ZM39.044 149.273C38.7902 149.273 38.5592 149.252 38.3509 149.21C38.1425 149.172 37.9872 149.131 37.8849 149.085L38.294 147.693C38.6046 147.777 38.8812 147.813 39.1236 147.801C39.366 147.79 39.58 147.699 39.7656 147.528C39.955 147.358 40.1217 147.08 40.2656 146.693L40.4759 146.114L37.2827 137.273H39.1009L41.3111 144.045H41.402L43.6122 137.273H45.4361L41.8395 147.165C41.6728 147.619 41.4607 148.004 41.2031 148.318C40.9455 148.636 40.6387 148.875 40.2827 149.034C39.9266 149.193 39.5137 149.273 39.044 149.273ZM47.0327 146V137.273H48.6747V138.659H48.7656C48.9247 138.189 49.205 137.82 49.6065 137.551C50.0118 137.278 50.4702 137.142 50.9815 137.142C51.0876 137.142 51.2126 137.146 51.3565 137.153C51.5043 137.161 51.6198 137.17 51.7031 137.182V138.807C51.6349 138.788 51.5137 138.767 51.3395 138.744C51.1652 138.718 50.991 138.705 50.8168 138.705C50.4152 138.705 50.0573 138.79 49.7429 138.96C49.4323 139.127 49.1861 139.36 49.0043 139.659C48.8224 139.955 48.7315 140.292 48.7315 140.67V146H47.0327ZM56.6222 146.176C55.7623 146.176 55.0218 145.992 54.4006 145.625C53.7831 145.254 53.3059 144.733 52.9688 144.062C52.6354 143.388 52.4688 142.598 52.4688 141.693C52.4688 140.799 52.6354 140.011 52.9688 139.33C53.3059 138.648 53.7756 138.116 54.3778 137.733C54.9839 137.35 55.6922 137.159 56.5028 137.159C56.9953 137.159 57.4725 137.241 57.9347 137.403C58.3968 137.566 58.8116 137.822 59.179 138.17C59.5464 138.519 59.8362 138.972 60.0483 139.528C60.2604 140.081 60.3665 140.754 60.3665 141.545V142.148H53.429V140.875H58.7017C58.7017 140.428 58.6108 140.032 58.429 139.688C58.2472 139.339 57.9915 139.064 57.6619 138.864C57.3362 138.663 56.9536 138.562 56.5142 138.562C56.0369 138.562 55.6203 138.68 55.2642 138.915C54.9119 139.146 54.6392 139.449 54.446 139.824C54.2566 140.195 54.1619 140.598 54.1619 141.034V142.028C54.1619 142.612 54.2642 143.108 54.4688 143.517C54.6771 143.926 54.9669 144.239 55.3381 144.455C55.7093 144.667 56.143 144.773 56.6392 144.773C56.9612 144.773 57.2547 144.727 57.5199 144.636C57.785 144.542 58.0142 144.402 58.2074 144.216C58.4006 144.03 58.5483 143.801 58.6506 143.528L60.2585 143.818C60.1297 144.292 59.8987 144.706 59.5653 145.062C59.2358 145.415 58.821 145.689 58.321 145.886C57.8248 146.08 57.2585 146.176 56.6222 146.176ZM68.7912 139.403L67.2514 139.676C67.187 139.479 67.0848 139.292 66.9446 139.114C66.8082 138.936 66.6226 138.79 66.3878 138.676C66.1529 138.562 65.8594 138.506 65.5071 138.506C65.026 138.506 64.6245 138.614 64.3026 138.83C63.9806 139.042 63.8196 139.316 63.8196 139.653C63.8196 139.945 63.9276 140.18 64.1435 140.358C64.3594 140.536 64.7079 140.682 65.1889 140.795L66.5753 141.114C67.3783 141.299 67.9768 141.585 68.3707 141.972C68.7647 142.358 68.9616 142.86 68.9616 143.477C68.9616 144 68.8101 144.466 68.5071 144.875C68.2079 145.28 67.7893 145.598 67.2514 145.83C66.7173 146.061 66.098 146.176 65.3935 146.176C64.4162 146.176 63.6188 145.968 63.0014 145.551C62.384 145.131 62.0052 144.534 61.8651 143.761L63.5071 143.511C63.6094 143.939 63.8196 144.263 64.1378 144.483C64.456 144.699 64.8707 144.807 65.3821 144.807C65.9389 144.807 66.384 144.691 66.7173 144.46C67.0507 144.225 67.2173 143.939 67.2173 143.602C67.2173 143.33 67.1151 143.1 66.9105 142.915C66.7098 142.729 66.401 142.589 65.9844 142.494L64.5071 142.17C63.6927 141.985 63.0904 141.689 62.7003 141.284C62.3139 140.879 62.1207 140.366 62.1207 139.744C62.1207 139.229 62.2647 138.778 62.5526 138.392C62.8404 138.006 63.2382 137.705 63.7457 137.489C64.2533 137.269 64.8348 137.159 65.4901 137.159C66.4332 137.159 67.1757 137.364 67.7173 137.773C68.259 138.178 68.617 138.722 68.7912 139.403ZM76.358 142.381V137.273H78.0625V146H76.392V144.489H76.3011C76.1004 144.955 75.7784 145.343 75.3352 145.653C74.8958 145.96 74.3485 146.114 73.6932 146.114C73.1326 146.114 72.6364 145.991 72.2045 145.744C71.7765 145.494 71.4394 145.125 71.1932 144.636C70.9508 144.148 70.8295 143.544 70.8295 142.824V137.273H72.5284V142.619C72.5284 143.214 72.6932 143.687 73.0227 144.04C73.3523 144.392 73.7803 144.568 74.3068 144.568C74.625 144.568 74.9413 144.489 75.2557 144.33C75.5739 144.17 75.8371 143.93 76.0455 143.608C76.2576 143.286 76.3617 142.877 76.358 142.381ZM80.3452 146V137.273H81.9759V138.693H82.0838C82.2656 138.212 82.563 137.837 82.9759 137.568C83.3887 137.295 83.883 137.159 84.4588 137.159C85.0421 137.159 85.5308 137.295 85.9247 137.568C86.3224 137.841 86.616 138.216 86.8054 138.693H86.8963C87.1046 138.227 87.4361 137.856 87.8906 137.58C88.3452 137.299 88.8868 137.159 89.5156 137.159C90.3073 137.159 90.9531 137.407 91.4531 137.903C91.9569 138.4 92.2088 139.148 92.2088 140.148V146H90.5099V140.307C90.5099 139.716 90.349 139.288 90.027 139.023C89.705 138.758 89.3205 138.625 88.8736 138.625C88.3205 138.625 87.8906 138.795 87.5838 139.136C87.277 139.473 87.1236 139.907 87.1236 140.438V146H85.4304V140.199C85.4304 139.725 85.2827 139.345 84.9872 139.057C84.6918 138.769 84.3073 138.625 83.8338 138.625C83.5118 138.625 83.2145 138.71 82.9418 138.881C82.6728 139.047 82.455 139.28 82.2884 139.58C82.1255 139.879 82.044 140.225 82.044 140.619V146H80.3452ZM98.2472 146.176C97.3873 146.176 96.6468 145.992 96.0256 145.625C95.4081 145.254 94.9309 144.733 94.5938 144.062C94.2604 143.388 94.0938 142.598 94.0938 141.693C94.0938 140.799 94.2604 140.011 94.5938 139.33C94.9309 138.648 95.4006 138.116 96.0028 137.733C96.6089 137.35 97.3172 137.159 98.1278 137.159C98.6203 137.159 99.0975 137.241 99.5597 137.403C100.022 137.566 100.437 137.822 100.804 138.17C101.171 138.519 101.461 138.972 101.673 139.528C101.885 140.081 101.991 140.754 101.991 141.545V142.148H95.054V140.875H100.327C100.327 140.428 100.236 140.032 100.054 139.688C99.8722 139.339 99.6165 139.064 99.2869 138.864C98.9612 138.663 98.5786 138.562 98.1392 138.562C97.6619 138.562 97.2453 138.68 96.8892 138.915C96.5369 139.146 96.2642 139.449 96.071 139.824C95.8816 140.195 95.7869 140.598 95.7869 141.034V142.028C95.7869 142.612 95.8892 143.108 96.0938 143.517C96.3021 143.926 96.5919 144.239 96.9631 144.455C97.3343 144.667 97.768 144.773 98.2642 144.773C98.5862 144.773 98.8797 144.727 99.1449 144.636C99.41 144.542 99.6392 144.402 99.8324 144.216C100.026 144.03 100.173 143.801 100.276 143.528L101.884 143.818C101.755 144.292 101.524 144.706 101.19 145.062C100.861 145.415 100.446 145.689 99.946 145.886C99.4498 146.08 98.8835 146.176 98.2472 146.176ZM104.996 146.108C104.685 146.108 104.418 145.998 104.195 145.778C103.971 145.555 103.859 145.286 103.859 144.972C103.859 144.661 103.971 144.396 104.195 144.176C104.418 143.953 104.685 143.841 104.996 143.841C105.306 143.841 105.573 143.953 105.797 144.176C106.02 144.396 106.132 144.661 106.132 144.972C106.132 145.18 106.079 145.371 105.973 145.545C105.871 145.716 105.734 145.852 105.564 145.955C105.393 146.057 105.204 146.108 104.996 146.108ZM108.408 149.273V137.273H110.067V138.688H110.209C110.307 138.506 110.449 138.295 110.635 138.057C110.821 137.818 111.078 137.61 111.408 137.432C111.737 137.25 112.173 137.159 112.714 137.159C113.419 137.159 114.048 137.337 114.601 137.693C115.154 138.049 115.588 138.562 115.902 139.233C116.22 139.903 116.379 140.71 116.379 141.653C116.379 142.597 116.222 143.405 115.908 144.08C115.593 144.75 115.161 145.267 114.612 145.631C114.063 145.991 113.436 146.17 112.732 146.17C112.201 146.17 111.768 146.081 111.43 145.903C111.097 145.725 110.836 145.517 110.646 145.278C110.457 145.04 110.311 144.828 110.209 144.642H110.107V149.273H108.408ZM110.072 141.636C110.072 142.25 110.161 142.788 110.339 143.25C110.518 143.712 110.775 144.074 111.112 144.335C111.449 144.593 111.862 144.722 112.351 144.722C112.858 144.722 113.283 144.587 113.624 144.318C113.964 144.045 114.222 143.676 114.396 143.21C114.574 142.744 114.663 142.22 114.663 141.636C114.663 141.061 114.576 140.544 114.402 140.085C114.232 139.627 113.974 139.265 113.629 139C113.288 138.735 112.862 138.602 112.351 138.602C111.858 138.602 111.442 138.729 111.101 138.983C110.764 139.237 110.508 139.591 110.334 140.045C110.16 140.5 110.072 141.03 110.072 141.636ZM121.55 146.17C120.845 146.17 120.216 145.991 119.663 145.631C119.114 145.267 118.682 144.75 118.368 144.08C118.057 143.405 117.902 142.597 117.902 141.653C117.902 140.71 118.059 139.903 118.374 139.233C118.692 138.562 119.127 138.049 119.68 137.693C120.233 137.337 120.86 137.159 121.561 137.159C122.103 137.159 122.538 137.25 122.868 137.432C123.201 137.61 123.459 137.818 123.641 138.057C123.826 138.295 123.97 138.506 124.072 138.688H124.175V134.364H125.874V146H124.214V144.642H124.072C123.97 144.828 123.822 145.04 123.629 145.278C123.44 145.517 123.179 145.725 122.845 145.903C122.512 146.081 122.08 146.17 121.55 146.17ZM121.925 144.722C122.413 144.722 122.826 144.593 123.163 144.335C123.504 144.074 123.762 143.712 123.936 143.25C124.114 142.788 124.203 142.25 124.203 141.636C124.203 141.03 124.116 140.5 123.942 140.045C123.768 139.591 123.512 139.237 123.175 138.983C122.838 138.729 122.421 138.602 121.925 138.602C121.413 138.602 120.987 138.735 120.646 139C120.305 139.265 120.048 139.627 119.874 140.085C119.703 140.544 119.618 141.061 119.618 141.636C119.618 142.22 119.705 142.744 119.879 143.21C120.054 143.676 120.311 144.045 120.652 144.318C120.997 144.587 121.421 144.722 121.925 144.722ZM132.452 137.273V138.636H127.52V137.273H132.452ZM128.872 146V136.261C128.872 135.716 128.991 135.263 129.23 134.903C129.469 134.54 129.785 134.269 130.179 134.091C130.573 133.909 131.001 133.818 131.463 133.818C131.804 133.818 132.096 133.847 132.338 133.903C132.58 133.956 132.76 134.006 132.878 134.051L132.48 135.426C132.401 135.403 132.298 135.377 132.173 135.347C132.048 135.312 131.897 135.295 131.719 135.295C131.306 135.295 131.01 135.398 130.832 135.602C130.658 135.807 130.571 136.102 130.571 136.489V146H128.872Z" fill="black"/>
<rect x="186" y="114" width="64" height="28" rx="4" fill="#407BFF"/>
<path d="M202.619 123.545H204.05V129.764C204.05 130.426 203.894 131.012 203.583 131.523C203.273 132.031 202.836 132.431 202.272 132.723C201.709 133.012 201.049 133.157 200.292 133.157C199.538 133.157 198.879 133.012 198.316 132.723C197.753 132.431 197.316 132.031 197.005 131.523C196.694 131.012 196.539 130.426 196.539 129.764V123.545H197.965V129.648C197.965 130.076 198.059 130.456 198.247 130.789C198.438 131.121 198.707 131.383 199.055 131.574C199.402 131.761 199.815 131.855 200.292 131.855C200.772 131.855 201.186 131.761 201.534 131.574C201.885 131.383 202.152 131.121 202.337 130.789C202.525 130.456 202.619 130.076 202.619 129.648V123.545ZM206.013 135.659V125.909H207.361V127.059H207.476C207.556 126.911 207.672 126.74 207.823 126.546C207.973 126.352 208.183 126.183 208.45 126.038C208.718 125.891 209.072 125.817 209.512 125.817C210.085 125.817 210.595 125.961 211.045 126.251C211.494 126.54 211.847 126.957 212.102 127.502C212.361 128.047 212.49 128.702 212.49 129.468C212.49 130.235 212.362 130.892 212.107 131.44C211.851 131.984 211.5 132.404 211.054 132.7C210.608 132.992 210.098 133.138 209.526 133.138C209.095 133.138 208.743 133.066 208.469 132.922C208.198 132.777 207.986 132.608 207.832 132.414C207.678 132.22 207.559 132.047 207.476 131.897H207.393V135.659H206.013ZM207.366 129.455C207.366 129.953 207.438 130.39 207.582 130.766C207.727 131.141 207.936 131.435 208.21 131.647C208.484 131.857 208.82 131.961 209.217 131.961C209.629 131.961 209.974 131.852 210.251 131.634C210.528 131.412 210.737 131.112 210.879 130.733C211.023 130.355 211.096 129.929 211.096 129.455C211.096 128.987 211.025 128.567 210.883 128.194C210.745 127.822 210.535 127.528 210.255 127.312C209.978 127.097 209.632 126.989 209.217 126.989C208.817 126.989 208.478 127.092 208.201 127.299C207.927 127.505 207.719 127.793 207.578 128.162C207.436 128.531 207.366 128.962 207.366 129.455ZM215.417 123.545V133H214.036V123.545H215.417ZM220.26 133.143C219.596 133.143 219.016 132.991 218.52 132.686C218.025 132.381 217.64 131.955 217.366 131.407C217.092 130.859 216.955 130.219 216.955 129.487C216.955 128.751 217.092 128.108 217.366 127.557C217.64 127.006 218.025 126.578 218.52 126.274C219.016 125.969 219.596 125.817 220.26 125.817C220.925 125.817 221.505 125.969 222.001 126.274C222.496 126.578 222.881 127.006 223.155 127.557C223.429 128.108 223.566 128.751 223.566 129.487C223.566 130.219 223.429 130.859 223.155 131.407C222.881 131.955 222.496 132.381 222.001 132.686C221.505 132.991 220.925 133.143 220.26 133.143ZM220.265 131.984C220.696 131.984 221.053 131.871 221.336 131.643C221.619 131.415 221.829 131.112 221.964 130.733C222.102 130.355 222.172 129.938 222.172 129.482C222.172 129.03 222.102 128.614 221.964 128.236C221.829 127.854 221.619 127.548 221.336 127.317C221.053 127.086 220.696 126.971 220.265 126.971C219.831 126.971 219.471 127.086 219.185 127.317C218.902 127.548 218.691 127.854 218.552 128.236C218.417 128.614 218.349 129.03 218.349 129.482C218.349 129.938 218.417 130.355 218.552 130.733C218.691 131.112 218.902 131.415 219.185 131.643C219.471 131.871 219.831 131.984 220.265 131.984ZM227.17 133.157C226.721 133.157 226.315 133.074 225.951 132.908C225.588 132.738 225.301 132.494 225.088 132.174C224.879 131.854 224.774 131.461 224.774 130.996C224.774 130.596 224.851 130.267 225.005 130.009C225.159 129.75 225.367 129.545 225.628 129.395C225.89 129.244 226.182 129.13 226.505 129.053C226.829 128.976 227.158 128.917 227.493 128.877C227.918 128.828 228.263 128.788 228.527 128.757C228.792 128.724 228.984 128.67 229.104 128.596C229.225 128.522 229.285 128.402 229.285 128.236V128.203C229.285 127.8 229.171 127.488 228.943 127.266C228.718 127.045 228.383 126.934 227.937 126.934C227.472 126.934 227.106 127.037 226.838 127.243C226.573 127.446 226.39 127.673 226.288 127.922L224.991 127.626C225.145 127.196 225.37 126.848 225.665 126.583C225.964 126.315 226.307 126.121 226.695 126.001C227.082 125.878 227.49 125.817 227.918 125.817C228.201 125.817 228.501 125.851 228.818 125.918C229.138 125.983 229.437 126.103 229.714 126.278C229.994 126.454 230.223 126.705 230.402 127.031C230.58 127.354 230.669 127.774 230.669 128.291V133H229.321V132.031H229.266C229.177 132.209 229.043 132.384 228.864 132.557C228.686 132.729 228.457 132.872 228.177 132.986C227.897 133.1 227.561 133.157 227.17 133.157ZM227.47 132.049C227.852 132.049 228.178 131.974 228.449 131.823C228.723 131.672 228.931 131.475 229.072 131.232C229.217 130.986 229.289 130.723 229.289 130.442V129.528C229.24 129.578 229.145 129.624 229.003 129.667C228.864 129.707 228.706 129.742 228.527 129.773C228.349 129.801 228.175 129.827 228.006 129.852C227.836 129.873 227.695 129.892 227.581 129.907C227.313 129.941 227.069 129.998 226.847 130.078C226.629 130.158 226.453 130.273 226.321 130.424C226.191 130.572 226.127 130.769 226.127 131.015C226.127 131.357 226.253 131.615 226.505 131.79C226.758 131.963 227.079 132.049 227.47 132.049ZM235.162 133.138C234.59 133.138 234.079 132.992 233.63 132.7C233.184 132.404 232.833 131.984 232.577 131.44C232.325 130.892 232.199 130.235 232.199 129.468C232.199 128.702 232.326 128.047 232.582 127.502C232.84 126.957 233.194 126.54 233.644 126.251C234.093 125.961 234.602 125.817 235.172 125.817C235.612 125.817 235.966 125.891 236.233 126.038C236.504 126.183 236.714 126.352 236.861 126.546C237.012 126.74 237.129 126.911 237.212 127.059H237.295V123.545H238.676V133H237.328V131.897H237.212C237.129 132.047 237.009 132.22 236.852 132.414C236.698 132.608 236.486 132.777 236.215 132.922C235.944 133.066 235.593 133.138 235.162 133.138ZM235.467 131.961C235.864 131.961 236.2 131.857 236.474 131.647C236.751 131.435 236.96 131.141 237.101 130.766C237.246 130.39 237.318 129.953 237.318 129.455C237.318 128.962 237.248 128.531 237.106 128.162C236.964 127.793 236.757 127.505 236.483 127.299C236.209 127.092 235.87 126.989 235.467 126.989C235.052 126.989 234.705 127.097 234.428 127.312C234.151 127.528 233.942 127.822 233.801 128.194C233.662 128.567 233.593 128.987 233.593 129.455C233.593 129.929 233.664 130.355 233.805 130.733C233.947 131.112 234.156 131.412 234.433 131.634C234.713 131.852 235.058 131.961 235.467 131.961Z" fill="white"/>
</g>
<rect x="688.353" y="591" width="40" height="40" rx="10" transform="rotate(15 688.353 591)" fill="#FFAA94"/>
<g clip-path="url(#clip0_33959_1454)">
<path d="M709.092 619.851C708.978 620.278 708.699 620.642 708.316 620.863C707.933 621.084 707.478 621.144 707.051 621.029L697.392 618.441L693.309 620.798L696.76 607.919C696.875 607.492 697.154 607.128 697.537 606.907C697.92 606.686 698.375 606.626 698.802 606.741L710.071 609.76C710.498 609.875 710.862 610.154 711.083 610.537C711.304 610.92 711.364 611.375 711.249 611.801L709.092 619.851Z" stroke="white" stroke-width="1.66667" stroke-linecap="round" stroke-linejoin="round"/>
</g>
<rect x="684.572" y="64" width="48.5725" height="48.5725" rx="10" transform="rotate(15 684.572 64)" fill="#FBC75E"/>
<g clip-path="url(#clip1_33959_1454)">
<path d="M702.863 90.7803C706.864 91.8523 710.397 91.6403 710.754 90.3066C711.112 88.9729 708.158 87.0227 704.157 85.9506C700.156 84.8786 696.623 85.0906 696.265 86.4243C695.908 87.758 698.862 89.7082 702.863 90.7803Z" stroke="#F8F8FA" stroke-width="1.66667" stroke-linecap="round" stroke-linejoin="round"/>
<path d="M709.244 95.9411C708.886 97.2773 705.377 97.4932 701.353 96.4148C697.328 95.3364 694.397 93.395 694.755 92.0588" stroke="#F8F8FA" stroke-width="1.66667" stroke-linecap="round" stroke-linejoin="round"/>
<path d="M696.265 86.4243L693.245 97.6935C692.887 99.0296 695.818 100.971 699.843 102.049C703.867 103.128 707.376 102.912 707.734 101.576L710.754 90.3066" stroke="#F8F8FA" stroke-width="1.66667" stroke-linecap="round" stroke-linejoin="round"/>
</g>
<rect x="162" y="310.353" width="40" height="40" rx="10" transform="rotate(-15 162 310.353)" fill="#407BFF"/>
<path d="M180 323.733L184.174 328L192 320" stroke="white" stroke-width="2"/>
<rect x="95" y="514" width="138" height="70" rx="10" fill="#F5F5F5"/>
<path d="M112.71 567.455V552.909H113.642V567.455H112.71ZM115.625 557.42C115.564 556.883 115.314 556.466 114.875 556.17C114.436 555.871 113.883 555.722 113.216 555.722C112.739 555.722 112.326 555.797 111.977 555.949C111.629 556.097 111.358 556.301 111.165 556.562C110.975 556.82 110.881 557.114 110.881 557.443C110.881 557.72 110.945 557.958 111.074 558.159C111.206 558.36 111.379 558.528 111.591 558.665C111.807 558.797 112.038 558.909 112.284 559C112.53 559.087 112.767 559.159 112.994 559.216L114.131 559.511C114.502 559.602 114.883 559.725 115.273 559.881C115.663 560.036 116.025 560.241 116.358 560.494C116.691 560.748 116.96 561.062 117.165 561.438C117.373 561.812 117.477 562.261 117.477 562.784C117.477 563.443 117.307 564.028 116.966 564.54C116.629 565.051 116.138 565.455 115.494 565.75C114.854 566.045 114.08 566.193 113.17 566.193C112.299 566.193 111.545 566.055 110.909 565.778C110.273 565.502 109.775 565.11 109.415 564.602C109.055 564.091 108.856 563.485 108.818 562.784H110.58C110.614 563.205 110.75 563.555 110.989 563.835C111.231 564.112 111.54 564.318 111.915 564.455C112.294 564.587 112.708 564.653 113.159 564.653C113.655 564.653 114.097 564.576 114.483 564.42C114.873 564.261 115.18 564.042 115.403 563.761C115.627 563.477 115.739 563.146 115.739 562.767C115.739 562.422 115.64 562.14 115.443 561.92C115.25 561.701 114.987 561.519 114.653 561.375C114.324 561.231 113.951 561.104 113.534 560.994L112.159 560.619C111.227 560.366 110.489 559.992 109.943 559.5C109.402 559.008 109.131 558.356 109.131 557.545C109.131 556.875 109.313 556.29 109.676 555.79C110.04 555.29 110.532 554.902 111.153 554.625C111.775 554.345 112.475 554.205 113.256 554.205C114.044 554.205 114.739 554.343 115.341 554.619C115.947 554.896 116.424 555.277 116.773 555.761C117.121 556.242 117.303 556.795 117.318 557.42H115.625ZM119.416 566V564.727L123.354 560.648C123.774 560.205 124.121 559.816 124.393 559.483C124.67 559.146 124.876 558.826 125.013 558.523C125.149 558.22 125.217 557.898 125.217 557.557C125.217 557.17 125.126 556.837 124.945 556.557C124.763 556.273 124.515 556.055 124.2 555.903C123.886 555.748 123.532 555.67 123.138 555.67C122.721 555.67 122.357 555.756 122.047 555.926C121.736 556.097 121.498 556.337 121.331 556.648C121.164 556.958 121.081 557.322 121.081 557.739H119.405C119.405 557.03 119.568 556.411 119.893 555.881C120.219 555.35 120.666 554.939 121.234 554.648C121.803 554.352 122.448 554.205 123.172 554.205C123.903 554.205 124.547 554.35 125.104 554.642C125.664 554.93 126.102 555.324 126.416 555.824C126.731 556.32 126.888 556.881 126.888 557.506C126.888 557.938 126.806 558.36 126.643 558.773C126.484 559.186 126.206 559.646 125.808 560.153C125.411 560.657 124.857 561.269 124.149 561.989L121.837 564.409V564.494H127.075V566H119.416ZM128.734 563.727V562.307L133.763 554.364H134.882V556.455H134.172L130.575 562.148V562.239H137.467V563.727H128.734ZM134.251 566V563.295L134.263 562.648V554.364H135.928V566H134.251ZM143.288 566.159C142.576 566.159 141.936 566.023 141.368 565.75C140.804 565.473 140.353 565.095 140.016 564.614C139.679 564.133 139.499 563.583 139.476 562.966H141.18C141.222 563.466 141.444 563.877 141.845 564.199C142.247 564.521 142.728 564.682 143.288 564.682C143.735 564.682 144.131 564.58 144.476 564.375C144.824 564.167 145.097 563.881 145.294 563.517C145.495 563.153 145.595 562.739 145.595 562.273C145.595 561.799 145.493 561.377 145.288 561.006C145.084 560.634 144.802 560.343 144.442 560.131C144.086 559.919 143.677 559.811 143.214 559.807C142.862 559.807 142.508 559.867 142.152 559.989C141.796 560.11 141.508 560.269 141.288 560.466L139.68 560.227L140.334 554.364H146.732V555.869H141.794L141.425 559.125H141.493C141.72 558.905 142.021 558.722 142.396 558.574C142.775 558.426 143.18 558.352 143.612 558.352C144.321 558.352 144.951 558.521 145.504 558.858C146.061 559.195 146.499 559.655 146.817 560.239C147.139 560.818 147.298 561.485 147.294 562.239C147.298 562.992 147.127 563.665 146.783 564.256C146.442 564.847 145.968 565.312 145.362 565.653C144.76 565.991 144.069 566.159 143.288 566.159ZM153.42 566.193C152.523 566.189 151.756 565.953 151.119 565.483C150.483 565.013 149.996 564.33 149.659 563.432C149.322 562.534 149.153 561.453 149.153 560.188C149.153 558.926 149.322 557.848 149.659 556.955C150 556.061 150.489 555.379 151.125 554.909C151.765 554.439 152.53 554.205 153.42 554.205C154.311 554.205 155.074 554.441 155.71 554.915C156.347 555.384 156.833 556.066 157.17 556.96C157.511 557.85 157.682 558.926 157.682 560.188C157.682 561.456 157.513 562.54 157.176 563.438C156.839 564.331 156.352 565.015 155.716 565.489C155.08 565.958 154.314 566.193 153.42 566.193ZM153.42 564.676C154.208 564.676 154.824 564.292 155.267 563.523C155.714 562.754 155.938 561.642 155.938 560.188C155.938 559.222 155.835 558.405 155.631 557.739C155.43 557.068 155.14 556.561 154.761 556.216C154.386 555.867 153.939 555.693 153.42 555.693C152.636 555.693 152.021 556.08 151.574 556.852C151.127 557.625 150.902 558.737 150.898 560.188C150.898 561.157 150.998 561.977 151.199 562.648C151.403 563.314 151.693 563.82 152.068 564.165C152.443 564.506 152.894 564.676 153.42 564.676ZM163.749 566.193C162.851 566.189 162.084 565.953 161.447 565.483C160.811 565.013 160.324 564.33 159.987 563.432C159.65 562.534 159.482 561.453 159.482 560.188C159.482 558.926 159.65 557.848 159.987 556.955C160.328 556.061 160.817 555.379 161.453 554.909C162.093 554.439 162.858 554.205 163.749 554.205C164.639 554.205 165.402 554.441 166.038 554.915C166.675 555.384 167.161 556.066 167.499 556.96C167.839 557.85 168.01 558.926 168.01 560.188C168.01 561.456 167.841 562.54 167.504 563.438C167.167 564.331 166.68 565.015 166.044 565.489C165.408 565.958 164.643 566.193 163.749 566.193ZM163.749 564.676C164.536 564.676 165.152 564.292 165.595 563.523C166.042 562.754 166.266 561.642 166.266 560.188C166.266 559.222 166.163 558.405 165.959 557.739C165.758 557.068 165.468 556.561 165.089 556.216C164.714 555.867 164.268 555.693 163.749 555.693C162.964 555.693 162.349 556.08 161.902 556.852C161.455 557.625 161.23 558.737 161.226 560.188C161.226 561.157 161.326 561.977 161.527 562.648C161.732 563.314 162.021 563.82 162.396 564.165C162.771 564.506 163.222 564.676 163.749 564.676ZM170.746 566.108C170.435 566.108 170.168 565.998 169.945 565.778C169.721 565.555 169.609 565.286 169.609 564.972C169.609 564.661 169.721 564.396 169.945 564.176C170.168 563.953 170.435 563.841 170.746 563.841C171.056 563.841 171.323 563.953 171.547 564.176C171.77 564.396 171.882 564.661 171.882 564.972C171.882 565.18 171.829 565.371 171.723 565.545C171.621 565.716 171.484 565.852 171.314 565.955C171.143 566.057 170.954 566.108 170.746 566.108ZM177.764 566.193C176.866 566.189 176.099 565.953 175.463 565.483C174.827 565.013 174.34 564.33 174.003 563.432C173.666 562.534 173.497 561.453 173.497 560.188C173.497 558.926 173.666 557.848 174.003 556.955C174.344 556.061 174.832 555.379 175.469 554.909C176.109 554.439 176.874 554.205 177.764 554.205C178.654 554.205 179.418 554.441 180.054 554.915C180.69 555.384 181.177 556.066 181.514 556.96C181.855 557.85 182.026 558.926 182.026 560.188C182.026 561.456 181.857 562.54 181.52 563.438C181.183 564.331 180.696 565.015 180.06 565.489C179.423 565.958 178.658 566.193 177.764 566.193ZM177.764 564.676C178.552 564.676 179.168 564.292 179.611 563.523C180.058 562.754 180.281 561.642 180.281 560.188C180.281 559.222 180.179 558.405 179.974 557.739C179.774 557.068 179.484 556.561 179.105 556.216C178.73 555.867 178.283 555.693 177.764 555.693C176.98 555.693 176.365 556.08 175.918 556.852C175.471 557.625 175.245 558.737 175.241 560.188C175.241 561.157 175.342 561.977 175.543 562.648C175.747 563.314 176.037 563.82 176.412 564.165C176.787 564.506 177.238 564.676 177.764 564.676ZM188.092 566.193C187.195 566.189 186.428 565.953 185.791 565.483C185.155 565.013 184.668 564.33 184.331 563.432C183.994 562.534 183.825 561.453 183.825 560.188C183.825 558.926 183.994 557.848 184.331 556.955C184.672 556.061 185.161 555.379 185.797 554.909C186.437 554.439 187.202 554.205 188.092 554.205C188.982 554.205 189.746 554.441 190.382 554.915C191.018 555.384 191.505 556.066 191.842 556.96C192.183 557.85 192.354 558.926 192.354 560.188C192.354 561.456 192.185 562.54 191.848 563.438C191.511 564.331 191.024 565.015 190.388 565.489C189.751 565.958 188.986 566.193 188.092 566.193ZM188.092 564.676C188.88 564.676 189.496 564.292 189.939 563.523C190.386 562.754 190.609 561.642 190.609 560.188C190.609 559.222 190.507 558.405 190.303 557.739C190.102 557.068 189.812 556.561 189.433 556.216C189.058 555.867 188.611 555.693 188.092 555.693C187.308 555.693 186.693 556.08 186.246 556.852C185.799 557.625 185.573 558.737 185.57 560.188C185.57 561.157 185.67 561.977 185.871 562.648C186.075 563.314 186.365 563.82 186.74 564.165C187.115 564.506 187.566 564.676 188.092 564.676Z" fill="#263238"/>
<path d="M108.415 539H107.307L110.511 530.273H111.602L114.807 539H113.699L111.091 531.653H111.023L108.415 539ZM108.824 535.591H113.29V536.528H108.824V535.591ZM120.562 532.455L118.141 539H117.119L114.698 532.455H115.789L117.596 537.67H117.664L119.471 532.455H120.562ZM124.399 539.136C123.768 539.136 123.224 538.997 122.767 538.719C122.312 538.438 121.962 538.045 121.714 537.543C121.47 537.037 121.348 536.449 121.348 535.778C121.348 535.108 121.47 534.517 121.714 534.006C121.962 533.491 122.305 533.091 122.746 532.804C123.189 532.514 123.706 532.369 124.297 532.369C124.638 532.369 124.974 532.426 125.307 532.54C125.639 532.653 125.942 532.838 126.214 533.094C126.487 533.347 126.705 533.682 126.866 534.099C127.028 534.517 127.109 535.031 127.109 535.642V536.068H122.064V535.199H126.087C126.087 534.83 126.013 534.5 125.865 534.21C125.72 533.92 125.513 533.692 125.243 533.524C124.976 533.357 124.661 533.273 124.297 533.273C123.896 533.273 123.55 533.372 123.257 533.571C122.967 533.767 122.744 534.023 122.588 534.338C122.432 534.653 122.354 534.991 122.354 535.352V535.932C122.354 536.426 122.439 536.845 122.609 537.189C122.783 537.53 123.023 537.79 123.33 537.969C123.636 538.145 123.993 538.233 124.399 538.233C124.663 538.233 124.902 538.196 125.115 538.122C125.331 538.045 125.517 537.932 125.673 537.781C125.83 537.628 125.95 537.437 126.036 537.21L127.007 537.483C126.905 537.812 126.733 538.102 126.491 538.352C126.25 538.599 125.952 538.793 125.597 538.932C125.241 539.068 124.842 539.136 124.399 539.136ZM128.639 539V532.455H129.611V533.443H129.679C129.798 533.119 130.014 532.857 130.327 532.655C130.639 532.453 130.991 532.352 131.384 532.352C131.457 532.352 131.55 532.354 131.661 532.357C131.771 532.359 131.855 532.364 131.912 532.369V533.392C131.878 533.384 131.8 533.371 131.678 533.354C131.558 533.334 131.432 533.324 131.298 533.324C130.98 533.324 130.696 533.391 130.446 533.524C130.199 533.655 130.003 533.837 129.858 534.07C129.716 534.3 129.645 534.562 129.645 534.858V539H128.639ZM135.03 539.153C134.615 539.153 134.239 539.075 133.901 538.919C133.563 538.76 133.294 538.531 133.096 538.233C132.897 537.932 132.797 537.568 132.797 537.142C132.797 536.767 132.871 536.463 133.019 536.23C133.167 535.994 133.364 535.81 133.611 535.676C133.858 535.543 134.131 535.443 134.429 535.378C134.73 535.31 135.033 535.256 135.337 535.216C135.735 535.165 136.057 535.126 136.304 535.101C136.554 535.072 136.736 535.026 136.85 534.96C136.966 534.895 137.025 534.781 137.025 534.619V534.585C137.025 534.165 136.909 533.838 136.679 533.605C136.452 533.372 136.107 533.256 135.644 533.256C135.164 533.256 134.787 533.361 134.515 533.571C134.242 533.781 134.05 534.006 133.939 534.244L132.985 533.903C133.155 533.506 133.382 533.196 133.667 532.974C133.953 532.75 134.266 532.594 134.604 532.506C134.945 532.415 135.28 532.369 135.61 532.369C135.82 532.369 136.061 532.395 136.334 532.446C136.61 532.494 136.875 532.595 137.131 532.749C137.39 532.902 137.604 533.134 137.775 533.443C137.945 533.753 138.03 534.168 138.03 534.688V539H137.025V538.114H136.973C136.905 538.256 136.792 538.408 136.632 538.57C136.473 538.732 136.262 538.869 135.998 538.983C135.733 539.097 135.411 539.153 135.03 539.153ZM135.184 538.25C135.581 538.25 135.917 538.172 136.189 538.016C136.465 537.859 136.672 537.658 136.811 537.411C136.953 537.163 137.025 536.903 137.025 536.631V535.71C136.982 535.761 136.888 535.808 136.743 535.851C136.601 535.891 136.436 535.926 136.249 535.957C136.064 535.986 135.884 536.011 135.708 536.034C135.534 536.054 135.394 536.071 135.286 536.085C135.025 536.119 134.78 536.175 134.553 536.251C134.328 536.325 134.147 536.437 134.007 536.588C133.871 536.736 133.803 536.937 133.803 537.193C133.803 537.543 133.932 537.807 134.191 537.986C134.452 538.162 134.783 538.25 135.184 538.25ZM142.508 541.591C142.022 541.591 141.604 541.528 141.255 541.403C140.906 541.281 140.614 541.119 140.381 540.918C140.151 540.719 139.968 540.506 139.832 540.278L140.633 539.716C140.724 539.835 140.839 539.972 140.978 540.125C141.117 540.281 141.308 540.416 141.549 540.53C141.793 540.646 142.113 540.705 142.508 540.705C143.036 540.705 143.472 540.577 143.816 540.321C144.16 540.065 144.332 539.665 144.332 539.119V537.79H144.246C144.173 537.909 144.067 538.057 143.931 538.233C143.798 538.406 143.604 538.561 143.352 538.697C143.102 538.831 142.763 538.898 142.337 538.898C141.809 538.898 141.335 538.773 140.914 538.523C140.496 538.273 140.165 537.909 139.921 537.432C139.68 536.955 139.559 536.375 139.559 535.693C139.559 535.023 139.677 534.439 139.913 533.942C140.148 533.442 140.477 533.055 140.897 532.783C141.317 532.507 141.803 532.369 142.354 532.369C142.781 532.369 143.119 532.44 143.369 532.582C143.621 532.722 143.815 532.881 143.948 533.06C144.085 533.236 144.19 533.381 144.263 533.494H144.366V532.455H145.337V539.188C145.337 539.75 145.21 540.207 144.954 540.56C144.701 540.915 144.36 541.175 143.931 541.339C143.505 541.507 143.031 541.591 142.508 541.591ZM142.474 537.994C142.877 537.994 143.218 537.902 143.496 537.717C143.775 537.533 143.987 537.267 144.131 536.92C144.276 536.574 144.349 536.159 144.349 535.676C144.349 535.205 144.278 534.788 144.136 534.428C143.994 534.067 143.783 533.784 143.505 533.58C143.227 533.375 142.883 533.273 142.474 533.273C142.048 533.273 141.692 533.381 141.408 533.597C141.127 533.812 140.915 534.102 140.773 534.466C140.634 534.83 140.565 535.233 140.565 535.676C140.565 536.131 140.636 536.533 140.778 536.882C140.923 537.229 141.136 537.501 141.417 537.7C141.701 537.896 142.053 537.994 142.474 537.994ZM149.923 539.136C149.292 539.136 148.748 538.997 148.29 538.719C147.836 538.438 147.485 538.045 147.238 537.543C146.994 537.037 146.871 536.449 146.871 535.778C146.871 535.108 146.994 534.517 147.238 534.006C147.485 533.491 147.829 533.091 148.269 532.804C148.712 532.514 149.229 532.369 149.82 532.369C150.161 532.369 150.498 532.426 150.83 532.54C151.163 532.653 151.465 532.838 151.738 533.094C152.011 533.347 152.228 533.682 152.39 534.099C152.552 534.517 152.633 535.031 152.633 535.642V536.068H147.587V535.199H151.61C151.61 534.83 151.536 534.5 151.388 534.21C151.244 533.92 151.036 533.692 150.766 533.524C150.499 533.357 150.184 533.273 149.82 533.273C149.42 533.273 149.073 533.372 148.781 533.571C148.491 533.767 148.268 534.023 148.112 534.338C147.955 534.653 147.877 534.991 147.877 535.352V535.932C147.877 536.426 147.962 536.845 148.133 537.189C148.306 537.53 148.546 537.79 148.853 537.969C149.16 538.145 149.516 538.233 149.923 538.233C150.187 538.233 150.425 538.196 150.638 538.122C150.854 538.045 151.04 537.932 151.197 537.781C151.353 537.628 151.474 537.437 151.559 537.21L152.531 537.483C152.428 537.812 152.256 538.102 152.015 538.352C151.773 538.599 151.475 538.793 151.12 538.932C150.765 539.068 150.366 539.136 149.923 539.136ZM162.447 532.455C162.396 532.023 162.188 531.688 161.825 531.449C161.461 531.21 161.015 531.091 160.487 531.091C160.1 531.091 159.762 531.153 159.472 531.278C159.185 531.403 158.961 531.575 158.799 531.794C158.64 532.013 158.56 532.261 158.56 532.54C158.56 532.773 158.616 532.973 158.727 533.141C158.84 533.305 158.985 533.443 159.161 533.554C159.337 533.662 159.522 533.751 159.715 533.822C159.908 533.891 160.086 533.946 160.248 533.989L161.134 534.227C161.362 534.287 161.614 534.369 161.893 534.474C162.174 534.58 162.442 534.723 162.698 534.905C162.957 535.084 163.17 535.314 163.337 535.595C163.505 535.876 163.589 536.222 163.589 536.631C163.589 537.102 163.465 537.528 163.218 537.909C162.974 538.29 162.616 538.592 162.144 538.817C161.675 539.041 161.106 539.153 160.435 539.153C159.81 539.153 159.269 539.053 158.812 538.851C158.357 538.649 157.999 538.368 157.738 538.007C157.479 537.646 157.333 537.227 157.299 536.75H158.39C158.418 537.08 158.529 537.352 158.722 537.568C158.918 537.781 159.165 537.94 159.464 538.045C159.765 538.148 160.089 538.199 160.435 538.199C160.839 538.199 161.201 538.134 161.522 538.003C161.843 537.869 162.097 537.685 162.285 537.449C162.472 537.21 162.566 536.932 162.566 536.614C162.566 536.324 162.485 536.088 162.323 535.906C162.161 535.724 161.948 535.577 161.684 535.463C161.42 535.349 161.134 535.25 160.827 535.165L159.754 534.858C159.072 534.662 158.532 534.382 158.134 534.018C157.737 533.655 157.538 533.179 157.538 532.591C157.538 532.102 157.67 531.676 157.934 531.312C158.201 530.946 158.559 530.662 159.008 530.46C159.46 530.256 159.964 530.153 160.521 530.153C161.083 530.153 161.583 530.254 162.021 530.456C162.458 530.655 162.805 530.928 163.06 531.274C163.319 531.621 163.455 532.014 163.469 532.455H162.447ZM167.116 539.153C166.701 539.153 166.325 539.075 165.987 538.919C165.649 538.76 165.38 538.531 165.181 538.233C164.983 537.932 164.883 537.568 164.883 537.142C164.883 536.767 164.957 536.463 165.105 536.23C165.252 535.994 165.45 535.81 165.697 535.676C165.944 535.543 166.217 535.443 166.515 535.378C166.816 535.31 167.119 535.256 167.423 535.216C167.821 535.165 168.143 535.126 168.39 535.101C168.64 535.072 168.822 535.026 168.936 534.96C169.052 534.895 169.11 534.781 169.11 534.619V534.585C169.11 534.165 168.995 533.838 168.765 533.605C168.538 533.372 168.193 533.256 167.73 533.256C167.25 533.256 166.873 533.361 166.6 533.571C166.328 533.781 166.136 534.006 166.025 534.244L165.071 533.903C165.241 533.506 165.468 533.196 165.752 532.974C166.039 532.75 166.352 532.594 166.69 532.506C167.031 532.415 167.366 532.369 167.696 532.369C167.906 532.369 168.147 532.395 168.42 532.446C168.696 532.494 168.961 532.595 169.217 532.749C169.475 532.902 169.69 533.134 169.86 533.443C170.031 533.753 170.116 534.168 170.116 534.688V539H169.11V538.114H169.059C168.991 538.256 168.877 538.408 168.718 538.57C168.559 538.732 168.348 538.869 168.083 538.983C167.819 539.097 167.497 539.153 167.116 539.153ZM167.27 538.25C167.667 538.25 168.002 538.172 168.275 538.016C168.551 537.859 168.758 537.658 168.897 537.411C169.039 537.163 169.11 536.903 169.11 536.631V535.71C169.068 535.761 168.974 535.808 168.829 535.851C168.687 535.891 168.522 535.926 168.335 535.957C168.15 535.986 167.97 536.011 167.794 536.034C167.62 536.054 167.48 536.071 167.372 536.085C167.11 536.119 166.866 536.175 166.639 536.251C166.414 536.325 166.233 536.437 166.093 536.588C165.957 536.736 165.889 536.937 165.889 537.193C165.889 537.543 166.018 537.807 166.277 537.986C166.538 538.162 166.869 538.25 167.27 538.25ZM172.957 530.273V539H171.952V530.273H172.957ZM176.725 539.153C176.311 539.153 175.934 539.075 175.596 538.919C175.258 538.76 174.99 538.531 174.791 538.233C174.592 537.932 174.493 537.568 174.493 537.142C174.493 536.767 174.566 536.463 174.714 536.23C174.862 535.994 175.059 535.81 175.306 535.676C175.554 535.543 175.826 535.443 176.125 535.378C176.426 535.31 176.728 535.256 177.032 535.216C177.43 535.165 177.752 535.126 178 535.101C178.25 535.072 178.431 535.026 178.545 534.96C178.662 534.895 178.72 534.781 178.72 534.619V534.585C178.72 534.165 178.605 533.838 178.375 533.605C178.147 533.372 177.802 533.256 177.339 533.256C176.859 533.256 176.483 533.361 176.21 533.571C175.937 533.781 175.745 534.006 175.635 534.244L174.68 533.903C174.85 533.506 175.078 533.196 175.362 532.974C175.649 532.75 175.961 532.594 176.299 532.506C176.64 532.415 176.975 532.369 177.305 532.369C177.515 532.369 177.757 532.395 178.029 532.446C178.305 532.494 178.571 532.595 178.826 532.749C179.085 532.902 179.299 533.134 179.47 533.443C179.64 533.753 179.725 534.168 179.725 534.688V539H178.72V538.114H178.669C178.6 538.256 178.487 538.408 178.328 538.57C178.169 538.732 177.957 538.869 177.693 538.983C177.429 539.097 177.106 539.153 176.725 539.153ZM176.879 538.25C177.277 538.25 177.612 538.172 177.885 538.016C178.16 537.859 178.368 537.658 178.507 537.411C178.649 537.163 178.72 536.903 178.72 536.631V535.71C178.677 535.761 178.583 535.808 178.439 535.851C178.297 535.891 178.132 535.926 177.944 535.957C177.76 535.986 177.579 536.011 177.403 536.034C177.23 536.054 177.089 536.071 176.981 536.085C176.72 536.119 176.475 536.175 176.248 536.251C176.024 536.325 175.842 536.437 175.703 536.588C175.566 536.736 175.498 536.937 175.498 537.193C175.498 537.543 175.627 537.807 175.886 537.986C176.147 538.162 176.478 538.25 176.879 538.25ZM181.561 539V532.455H182.533V533.443H182.601C182.72 533.119 182.936 532.857 183.249 532.655C183.561 532.453 183.913 532.352 184.305 532.352C184.379 532.352 184.472 532.354 184.582 532.357C184.693 532.359 184.777 532.364 184.834 532.369V533.392C184.8 533.384 184.722 533.371 184.599 533.354C184.48 533.334 184.354 533.324 184.22 533.324C183.902 533.324 183.618 533.391 183.368 533.524C183.121 533.655 182.925 533.837 182.78 534.07C182.638 534.3 182.567 534.562 182.567 534.858V539H181.561ZM186.873 541.455C186.702 541.455 186.55 541.44 186.417 541.412C186.283 541.386 186.191 541.361 186.14 541.335L186.396 540.449C186.64 540.511 186.856 540.534 187.043 540.517C187.231 540.5 187.397 540.416 187.542 540.266C187.69 540.118 187.825 539.878 187.947 539.545L188.134 539.034L185.714 532.455H186.805L188.612 537.67H188.68L190.487 532.455H191.577L188.799 539.955C188.674 540.293 188.519 540.572 188.335 540.794C188.15 541.018 187.935 541.185 187.691 541.293C187.45 541.401 187.177 541.455 186.873 541.455Z" fill="#263238"/>
<path d="M216 566.667V558.333" stroke="#407BFF" stroke-width="1.66667" stroke-linecap="round" stroke-linejoin="round"/>
<path d="M211 566.667V553.333" stroke="#407BFF" stroke-width="1.66667" stroke-linecap="round" stroke-linejoin="round"/>
<path d="M206 566.667V561.667" stroke="#407BFF" stroke-width="1.66667" stroke-linecap="round" stroke-linejoin="round"/>
<defs>
<filter id="filter0_d_33959_1454" x="0" y="90" width="272" height="88" filterUnits="userSpaceOnUse" color-interpolation-filters="sRGB">
<feFlood flood-opacity="0" result="BackgroundImageFix"/>
<feColorMatrix in="SourceAlpha" type="matrix" values="0 0 0 0 0 0 0 0 0 0 0 0 0 0 0 0 0 0 127 0" result="hardAlpha"/>
<feOffset dy="4"/>
<feGaussianBlur stdDeviation="2.5"/>
<feComposite in2="hardAlpha" operator="out"/>
<feColorMatrix type="matrix" values="0 0 0 0 0 0 0 0 0 0 0 0 0 0 0 0 0 0 0.1 0"/>
<feBlend mode="normal" in2="BackgroundImageFix" result="effect1_dropShadow_33959_1454"/>
<feBlend mode="normal" in="SourceGraphic" in2="effect1_dropShadow_33959_1454" result="shape"/>
</filter>
<clipPath id="clip0_33959_1454">
<rect width="20" height="20" fill="white" transform="translate(695.424 603.247) rotate(15)"/>
</clipPath>
<clipPath id="clip1_33959_1454">
<rect width="20" height="20" fill="white" transform="translate(694.929 81.7526) rotate(15)"/>
</clipPath>
</defs>
</svg>
