<svg width="710" height="732" viewBox="0 0 710 732" fill="none" xmlns="http://www.w3.org/2000/svg">
<path d="M710 117.311V117.301C710 117.258 709.989 117.221 709.968 117.178C709.947 117.141 709.915 117.114 709.878 117.088C709.878 117.088 709.878 117.083 709.867 117.077L659.329 87.9024V29.5208V29.5101C659.329 29.4675 659.318 29.4303 659.297 29.3877C659.275 29.3505 659.244 29.3185 659.206 29.2972C659.206 29.2972 659.206 29.2919 659.196 29.2866L608.514 0.0319316H608.503C608.466 0.0106439 608.423 0 608.381 0C608.338 0 608.295 0.0159658 608.258 0.0319316H608.247L557.709 29.2068L507.16 0.0319316H507.15C507.112 0.0106439 507.07 0 507.027 0C506.985 0 506.942 0.0159658 506.905 0.0319316H506.894L456.356 29.2068L405.812 0.0319316H405.802C405.764 0.0106439 405.722 0 405.679 0C405.637 0 405.594 0.0159658 405.557 0.0319316H405.546L355.008 29.2068L304.459 0.0319316H304.448C304.411 0.0106439 304.369 0 304.326 0C304.283 0 304.241 0.0159658 304.204 0.0319316H304.193L253.655 29.2068L203.111 0.0319316H203.1C203.063 0.0106439 203.021 0 202.978 0C202.935 0 202.893 0.0159658 202.856 0.0319316H202.845L152.307 29.2068L101.758 0.0319316H101.747C101.71 0.0106439 101.667 0 101.625 0C101.582 0 101.54 0.0159658 101.502 0.0319316H101.492L50.815 29.2866C50.815 29.2866 50.815 29.2919 50.8044 29.2972C50.7671 29.3185 50.7352 29.3505 50.7139 29.3877C50.6926 29.425 50.682 29.4675 50.682 29.5101V29.5208V87.9024L0.133065 117.077C0.133065 117.077 0.133065 117.083 0.12242 117.088C0.0851619 117.109 0.0532262 117.141 0.0319357 117.178C0.0106452 117.216 0 117.258 0 117.301V117.311V175.821V175.831C0 175.874 0.0106452 175.917 0.0319357 175.954C0.0532262 175.991 0.0851619 176.023 0.127743 176.05L50.666 205.224V263.452L0.133065 292.632C0.133065 292.632 0.133065 292.637 0.12242 292.642C0.0851619 292.664 0.0532262 292.696 0.0319357 292.733C0.0106452 292.77 0 292.813 0 292.855V292.866V351.375V351.386C0 351.429 0.0106452 351.471 0.0319357 351.508C0.0532262 351.546 0.0851619 351.578 0.127743 351.604L50.666 380.779V439.006L0.133065 468.186C0.133065 468.186 0.133065 468.192 0.12242 468.197C0.0851619 468.218 0.0532262 468.25 0.0319357 468.288C0.0106452 468.325 0 468.367 0 468.41V468.421V526.93V526.941C0 526.983 0.0106452 527.026 0.0319357 527.063C0.0532262 527.1 0.0851619 527.132 0.127743 527.159L50.666 556.334V614.561L0.133065 643.741C0.133065 643.741 0.133065 643.746 0.12242 643.752C0.0851619 643.773 0.0532262 643.805 0.0319357 643.842C0.0106452 643.879 0 643.922 0 643.965V643.975V702.485V702.495C0 702.538 0.0106452 702.58 0.0319357 702.618C0.0532262 702.655 0.0851619 702.687 0.127743 702.713L50.7991 731.968H50.8097C50.847 731.989 50.8896 732 50.9321 732C50.9747 732 51.0173 731.984 51.0546 731.968H51.0652L101.603 702.793L152.142 731.968H152.152C152.19 731.989 152.232 732 152.275 732C152.317 732 152.36 731.984 152.397 731.968H152.408L202.946 702.793L253.484 731.968H253.495C253.532 731.989 253.575 732 253.617 732C253.66 732 253.703 731.984 253.74 731.968H253.75L304.289 702.793L354.827 731.968H354.838C354.875 731.989 354.918 732 354.96 732C355.003 732 355.045 731.984 355.082 731.968H355.093L405.631 702.793L456.17 731.968H456.18C456.218 731.989 456.26 732 456.303 732C456.345 732 456.388 731.984 456.425 731.968H456.436L506.974 702.793L557.512 731.968H557.523C557.56 731.989 557.603 732 557.645 732C557.688 732 557.731 731.984 557.768 731.968H557.778L608.317 702.793L658.855 731.968H658.866C658.903 731.989 658.945 732 658.988 732C659.031 732 659.073 731.984 659.11 731.968H659.121L709.792 702.713C709.835 702.687 709.867 702.655 709.893 702.612C709.915 702.575 709.926 702.533 709.926 702.49V702.479V643.97V643.959C709.926 643.917 709.915 643.879 709.893 643.837C709.872 643.8 709.84 643.768 709.803 643.746C709.803 643.746 709.803 643.741 709.792 643.736L659.254 614.561V556.334L709.792 527.159C709.835 527.132 709.867 527.1 709.893 527.058C709.915 527.02 709.926 526.978 709.926 526.935V526.925V468.415V468.405C709.926 468.362 709.915 468.325 709.893 468.282C709.872 468.245 709.84 468.218 709.803 468.192C709.803 468.192 709.803 468.186 709.792 468.181L659.254 439.006V380.779L709.792 351.604C709.835 351.578 709.867 351.546 709.893 351.503C709.915 351.466 709.926 351.423 709.926 351.381V351.37V292.861V292.85C709.926 292.807 709.915 292.77 709.893 292.728C709.872 292.69 709.84 292.664 709.803 292.637C709.803 292.637 709.803 292.632 709.792 292.627L659.254 263.452V205.224L709.792 176.05C709.835 176.023 709.867 175.991 709.893 175.948C709.915 175.911 709.926 175.869 709.926 175.826V175.815V117.306L710 117.311ZM709.457 350.907L659.595 322.121L709.457 293.334V350.902V350.907ZM709.457 526.462L659.595 497.675L709.457 468.889V526.456V526.462ZM709.457 702.016L659.595 673.23L709.457 644.444V702.011V702.016ZM0.542907 644.444L50.4052 673.23L0.542907 702.016V644.449V644.444ZM0.542907 468.889L50.4052 497.675L0.542907 526.462V468.894V468.889ZM0.542907 293.334L50.4052 322.121L0.542907 350.907V293.34V293.334ZM0.542907 117.78L50.4052 146.566L0.542907 175.352V117.785V117.78ZM455.808 205.075L405.945 233.862V176.294L437.306 194.4L455.808 205.081V205.075ZM355.54 497.675L405.402 468.889V526.456L355.54 497.67V497.675ZM254.192 497.675L304.055 468.889V526.456L254.192 497.67V497.675ZM303.783 234.33L253.921 263.116V205.549L303.783 234.335V234.33ZM405.136 234.33L355.274 263.116V205.549L405.136 234.335V234.33ZM304.597 410.353L354.46 439.139L304.597 467.926V410.358V410.353ZM318.67 359.97L354.46 380.63L304.597 409.416V351.849L318.67 359.976V359.97ZM333.606 367.964L304.869 351.375L354.731 322.589V380.156L333.606 367.964ZM354.731 321.652L304.869 292.866L354.731 264.08V321.647V321.652ZM354.46 322.121L304.597 350.907V293.34L354.46 322.126V322.121ZM304.055 351.844V409.411L254.192 380.625L304.055 351.838V351.844ZM304.055 467.92L254.192 439.134L304.055 410.348V467.915V467.92ZM304.869 409.885L354.731 381.098V438.666L304.869 409.879V409.885ZM355.269 380.162V322.594L405.131 351.381L355.269 380.167V380.162ZM355.269 264.085L405.131 292.871L355.269 321.658V264.09V264.085ZM304.055 292.366L254.192 263.579L304.055 234.793V292.36V292.366ZM303.783 292.866L253.921 321.652V264.085L303.783 292.871V292.866ZM304.055 350.907L254.192 322.121L304.055 293.334V350.902V350.907ZM303.783 409.885L253.921 438.671V381.104L303.783 409.89V409.885ZM303.783 468.421L253.921 497.207V439.64L303.783 468.426V468.421ZM405.131 468.421L355.269 497.207V439.64L405.131 468.426V468.421ZM355.54 439.134L405.402 410.348V467.915L355.54 439.129V439.134ZM355.269 381.098L405.131 409.885L355.269 438.671V381.104V381.098ZM355.54 322.121L405.402 293.334V350.902L355.54 322.115V322.121ZM355.54 263.579L405.402 234.793V292.36L355.54 263.574V263.579ZM304.597 292.366V234.798L354.46 263.585L304.597 292.371V292.366ZM303.783 351.375L253.921 380.162V322.594L303.783 351.381V351.375ZM253.378 438.666L203.516 409.879L253.378 381.093V438.66V438.666ZM354.731 439.64V497.207L304.869 468.421L354.731 439.634V439.64ZM355.54 380.63L405.402 351.844V409.411L355.54 380.625V380.63ZM405.945 293.334L455.808 322.121L405.945 350.907V293.34V293.334ZM355.54 205.075L405.402 176.289V233.856L355.54 205.07V205.075ZM354.731 263.111L304.869 234.325L354.731 205.538V263.106V263.111ZM254.192 205.075L304.055 176.289V233.856L254.192 205.07V205.075ZM253.378 263.111L203.516 234.325L253.378 205.538V263.106V263.111ZM253.106 263.579L203.244 292.366V234.798L253.106 263.585V263.579ZM253.378 264.085V321.652L203.516 292.866L253.378 264.08V264.085ZM253.378 380.156L221.948 362.014L203.516 351.375L253.378 322.589V380.156ZM234.674 369.991L253.106 380.63L203.244 409.416V351.849L234.674 369.991ZM253.106 439.134L203.244 467.92V410.353L253.106 439.139V439.134ZM253.378 439.64V497.207L203.516 468.421L253.378 439.634V439.64ZM303.783 526.93L253.921 555.716V498.149L303.783 526.935V526.93ZM304.597 468.889L354.46 497.675L304.597 526.462V468.894V468.889ZM405.131 526.93L355.269 555.716V498.149L405.131 526.935V526.93ZM405.945 468.889L455.808 497.675L405.945 526.462V468.894V468.889ZM406.217 468.421L456.079 439.634V497.202L406.217 468.415V468.421ZM405.945 467.92V410.353L455.808 439.139L405.945 467.926V467.92ZM405.945 351.844L437.36 369.981L455.808 380.63L405.945 409.416V351.849V351.844ZM424.665 362.025L406.217 351.375L456.079 322.589V380.156L424.665 362.019V362.025ZM406.217 292.866L456.079 264.08V321.647L406.217 292.861V292.866ZM405.945 292.366V234.798L455.808 263.585L405.945 292.371V292.366ZM354.46 205.075L304.597 233.862V176.294L318.857 184.527L354.46 205.081V205.075ZM253.106 205.075L203.244 233.862V176.294L234.621 194.405L253.106 205.075ZM202.701 176.289V233.856L152.839 205.07L202.701 176.284V176.289ZM202.701 292.366L152.839 263.579L202.701 234.793V292.36V292.366ZM253.106 322.121L203.244 350.907V293.34L253.106 322.126V322.121ZM202.701 351.844V409.411L152.839 380.625L202.701 351.838V351.844ZM202.701 467.92L152.839 439.134L202.701 410.348V467.915V467.92ZM253.106 497.675L203.244 526.462V468.894L253.106 497.681V497.675ZM203.516 526.93L253.378 498.144V555.711L222.001 537.6L203.516 526.93ZM304.864 526.93L354.726 498.144V555.711L333.579 543.503L304.864 526.925V526.93ZM406.217 526.93L456.079 498.144V555.711L424.718 537.606L406.217 526.925V526.93ZM456.622 555.716V498.149L506.484 526.935L456.622 555.722V555.716ZM456.622 439.64L506.484 468.426L456.622 497.212V439.645V439.64ZM406.217 409.885L456.079 381.098V438.666L406.217 409.879V409.885ZM456.622 380.162V322.594L506.484 351.381L456.622 380.167V380.162ZM456.622 264.085L506.484 292.871L456.622 321.658V264.09V264.085ZM406.217 234.33L456.079 205.544V263.111L406.217 234.325V234.33ZM456.622 204.607V147.04L506.484 175.826L456.622 204.612V204.607ZM456.079 204.607L424.718 186.502L406.217 175.821L456.079 147.034V204.602V204.607ZM355.269 204.607V147.04L405.131 175.826L355.269 204.612V204.607ZM354.731 204.607L333.584 192.399L304.869 175.821L354.731 147.034V204.602V204.607ZM253.921 204.607V147.04L303.783 175.826L253.921 204.612V204.607ZM253.378 204.607L222.001 186.497L203.516 175.826L253.378 147.04V204.607ZM152.568 204.607V147.04L202.43 175.826L152.568 204.612V204.607ZM202.43 234.33L152.568 263.116V205.549L202.43 234.335V234.33ZM202.701 350.907L152.839 322.121L202.701 293.334V350.902V350.907ZM202.43 351.375L152.568 380.162V322.594L202.43 351.381V351.375ZM202.43 409.885L152.568 438.671V381.104L202.43 409.89V409.885ZM202.701 526.462L152.839 497.675L202.701 468.889V526.456V526.462ZM202.43 526.93L152.568 555.716V498.149L202.43 526.935V526.93ZM202.701 527.398V584.966L152.839 556.179L202.701 527.393V527.398ZM203.244 527.398L234.621 545.509L253.106 556.179L203.244 584.966V527.398ZM304.055 527.398V584.966L254.192 556.179L304.055 527.393V527.398ZM304.597 527.398L318.857 535.631L354.46 556.185L304.597 584.971V527.404V527.398ZM405.402 527.398V584.966L355.54 556.179L405.402 527.393V527.398ZM405.945 527.398L437.306 545.503L455.808 556.185L405.945 584.971V527.404V527.398ZM456.894 497.675L506.756 468.889V526.456L456.894 497.67V497.675ZM456.622 381.098L506.484 409.885L456.622 438.671V381.104V381.098ZM456.894 322.121L506.756 293.334V350.902L456.894 322.115V322.121ZM456.622 205.544L506.484 234.33L456.622 263.116V205.549V205.544ZM456.894 146.566L506.756 117.78V175.347L456.894 146.561V146.566ZM405.945 175.352V117.785L455.808 146.571L405.945 175.358V175.352ZM405.402 175.352L355.54 146.566L405.402 117.78V175.347V175.352ZM304.597 175.352V117.785L354.46 146.571L304.597 175.358V175.352ZM304.055 175.352L254.192 146.566L304.055 117.78V175.347V175.352ZM203.244 175.352V117.785L253.106 146.571L203.244 175.358V175.352ZM202.701 175.352L152.839 146.566L202.701 117.78V175.347V175.352ZM152.025 204.602L102.162 175.815L152.025 147.029V204.596V204.602ZM202.43 292.866L152.568 321.652V264.085L202.43 292.871V292.866ZM152.025 380.156L102.162 351.37L152.025 322.584V380.151V380.156ZM202.43 468.421L152.568 497.207V439.64L202.43 468.426V468.421ZM152.025 555.711L102.162 526.925L152.025 498.138V555.706V555.711ZM152.568 556.653L202.43 585.439L152.568 614.226V556.658V556.653ZM253.378 556.653V614.22L203.516 585.434L253.378 556.648V556.653ZM253.921 556.653L303.783 585.439L253.921 614.226V556.658V556.653ZM354.731 556.653V614.22L304.869 585.434L354.731 556.648V556.653ZM355.269 556.653L405.131 585.439L355.269 614.226V556.658V556.653ZM456.079 556.653V614.22L406.217 585.434L456.079 556.648V556.653ZM456.622 556.653L506.484 585.439L456.622 614.226V556.658V556.653ZM456.894 556.185L506.756 527.398V584.966L456.894 556.179V556.185ZM507.299 468.889L557.161 497.675L507.299 526.462V468.894V468.889ZM506.756 467.92L456.894 439.134L506.756 410.348V467.915V467.92ZM456.894 380.63L506.756 351.844V409.411L456.894 380.625V380.63ZM507.299 293.334L557.161 322.121L507.299 350.907V293.34V293.334ZM506.756 292.366L456.894 263.579L506.756 234.793V292.36V292.366ZM456.894 205.075L506.756 176.289V233.856L456.894 205.07V205.075ZM507.299 117.78L557.161 146.566L507.299 175.352V117.785V117.78ZM456.622 146.098V88.5304L506.484 117.317L456.622 146.103V146.098ZM456.079 146.098L406.217 117.311L456.079 88.525V146.092V146.098ZM355.269 146.098V88.5304L405.131 117.317L355.269 146.103V146.098ZM354.731 146.098L304.869 117.311L354.731 88.525V146.092V146.098ZM253.921 146.098V88.5304L303.783 117.317L253.921 146.103V146.098ZM253.378 146.098L203.516 117.311L253.378 88.525V146.092V146.098ZM152.568 146.098V88.5304L202.43 117.317L152.568 146.103V146.098ZM101.891 175.352V117.785L151.753 146.571L101.891 175.358V175.352ZM152.025 321.652L102.162 292.866L152.025 264.08V321.647V321.652ZM151.753 322.121L101.891 350.907V293.34L151.753 322.126V322.121ZM152.025 497.207L102.162 468.421L152.025 439.634V497.202V497.207ZM151.753 497.675L101.891 526.462V468.894L151.753 497.681V497.675ZM202.701 585.908V643.475L152.839 614.689L202.701 585.902V585.908ZM203.244 585.908L253.106 614.694L203.244 643.48V585.913V585.908ZM304.055 585.908V643.475L254.192 614.689L304.055 585.902V585.908ZM304.597 585.908L354.46 614.694L304.597 643.48V585.913V585.908ZM405.402 585.908V643.475L355.54 614.689L405.402 585.902V585.908ZM405.945 585.908L455.808 614.694L405.945 643.48V585.913V585.908ZM506.756 585.908V643.475L456.894 614.689L506.756 585.902V585.908ZM507.299 585.908L557.161 614.694L507.299 643.48V585.913V585.908ZM507.299 527.398L538.692 545.519L557.161 556.185L507.299 584.971V527.404V527.398ZM526.04 537.59L507.57 526.925L557.432 498.138V555.706L526.04 537.584V537.59ZM507.57 468.421L557.432 439.634V497.202L507.57 468.415V468.421ZM507.299 467.92V410.353L557.161 439.139L507.299 467.926V467.92ZM507.299 351.844L538.745 369.997L557.161 380.625L507.299 409.411V351.844ZM525.981 362.003L507.565 351.375L557.427 322.589V380.156L525.981 362.003ZM507.57 292.866L557.432 264.08V321.647L507.57 292.861V292.866ZM507.299 292.366V234.798L557.161 263.585L507.299 292.371V292.366ZM507.299 176.289L538.692 194.41L557.161 205.075L507.299 233.862V176.294V176.289ZM526.04 186.481L507.57 175.815L557.432 147.029V204.596L526.04 186.475V186.481ZM507.57 117.311L557.432 88.525V146.092L507.57 117.306V117.311ZM152.025 146.098L102.162 117.311L152.025 88.525V146.092V146.098ZM152.025 263.111L102.162 234.325L152.025 205.538V263.106V263.111ZM152.025 438.666L102.162 409.879L152.025 381.093V438.66V438.666ZM152.025 614.22L102.162 585.434L152.025 556.648V614.215V614.22ZM507.57 585.439L557.432 556.653V614.22L507.57 585.434V585.439ZM557.975 498.144L607.838 526.93L557.975 555.716V498.149V498.144ZM557.975 439.64L607.838 468.426L557.975 497.212V439.645V439.64ZM507.57 409.885L557.432 381.098V438.666L507.57 409.879V409.885ZM557.975 322.589L607.838 351.375L557.975 380.162V322.594V322.589ZM557.975 264.085L607.838 292.871L557.975 321.658V264.09V264.085ZM507.57 234.33L557.432 205.544V263.111L507.57 234.325V234.33ZM557.975 147.034L607.838 175.821L557.975 204.607V147.04V147.034ZM557.975 88.5304L607.838 117.317L557.975 146.103V88.5357V88.5304ZM151.758 205.075L101.896 233.862V176.294L151.758 205.081V205.075ZM151.758 263.579L101.896 292.366V234.798L151.758 263.585V263.579ZM151.758 380.63L101.896 409.416V351.849L151.758 380.635V380.63ZM151.758 439.134L101.896 467.92V410.353L151.758 439.139V439.134ZM151.758 556.185L101.896 584.971V527.404L151.758 556.19V556.185ZM151.758 614.689L101.896 643.475V585.908L151.758 614.694V614.689ZM557.975 556.653L607.838 585.439L557.975 614.226V556.658V556.653ZM558.247 497.675L608.109 468.889V526.456L558.247 497.67V497.675ZM557.975 381.098L607.838 409.885L557.975 438.671V381.104V381.098ZM558.247 322.121L608.109 293.334V350.902L558.247 322.115V322.121ZM557.975 205.544L607.838 234.33L557.975 263.116V205.549V205.544ZM558.247 146.566L608.109 117.78V175.347L558.247 146.561V146.566ZM658.78 88.5304V146.098L608.918 117.311L658.78 88.525V88.5304ZM608.109 116.811L558.247 88.0248L608.109 59.2384V116.806V116.811ZM507.299 116.811V59.2438L557.161 88.0301L507.299 116.816V116.811ZM506.756 116.811L456.894 88.0248L506.756 59.2384V116.806V116.811ZM405.945 116.811V59.2438L455.808 88.0301L405.945 116.816V116.811ZM405.402 116.811L355.54 88.0248L405.402 59.2384V116.806V116.811ZM304.597 116.811V59.2438L354.46 88.0301L304.597 116.816V116.811ZM304.055 116.811L254.192 88.0248L304.055 59.2384V116.806V116.811ZM203.244 116.811V59.2438L253.106 88.0301L203.244 116.816V116.811ZM202.701 116.811L152.839 88.0248L202.701 59.2384V116.806V116.811ZM101.896 59.2438L151.758 88.0301L101.896 116.816V59.2491V59.2438ZM101.348 175.352L51.4857 146.566L101.348 117.78V175.347V175.352ZM101.353 176.289V233.856L51.491 205.07L101.353 176.284V176.289ZM101.353 292.366L51.491 263.579L101.353 234.793V292.36V292.366ZM101.348 350.907L51.4857 322.121L101.348 293.334V350.902V350.907ZM101.353 351.844V409.411L51.491 380.625L101.353 351.838V351.844ZM101.353 467.92L51.491 439.134L101.353 410.348V467.915V467.92ZM101.348 526.462L51.4857 497.675L101.348 468.889V526.456V526.462ZM101.353 527.398V584.966L51.491 556.179L101.353 527.393V527.398ZM101.353 643.475L51.491 614.689L101.353 585.902V643.47V643.475ZM152.025 615.194V672.762L102.162 643.975L152.025 615.189V615.194ZM152.568 615.194L202.43 643.981L152.568 672.767V615.2V615.194ZM253.378 615.194V672.762L203.516 643.975L253.378 615.189V615.194ZM253.921 615.194L303.783 643.981L253.921 672.767V615.2V615.194ZM354.731 615.194V672.762L304.869 643.975L354.731 615.189V615.194ZM355.269 615.194L405.131 643.981L355.269 672.767V615.2V615.194ZM456.079 615.194V672.762L406.217 643.975L456.079 615.189V615.194ZM456.622 615.194L506.484 643.981L456.622 672.767V615.2V615.194ZM557.432 615.194V672.762L507.57 643.975L557.432 615.189V615.194ZM557.975 615.194L607.838 643.981L557.975 672.767V615.2V615.194ZM658.78 615.194V672.762L608.918 643.975L658.78 615.189V615.194ZM608.109 643.475L558.247 614.689L608.109 585.902V643.47V643.475ZM558.247 556.185L608.109 527.398V584.966L558.247 556.179V556.185ZM608.647 468.889L658.509 497.675L608.647 526.462V468.894V468.889ZM608.918 468.421L658.78 439.634V497.202L608.918 468.415V468.421ZM608.109 467.92L558.247 439.134L608.109 410.348V467.915V467.92ZM558.247 380.63L608.109 351.844V409.411L558.247 380.625V380.63ZM608.647 293.334L658.509 322.121L608.647 350.907V293.34V293.334ZM608.918 292.866L658.78 264.08V321.647L608.918 292.861V292.866ZM608.109 292.366L558.247 263.579L608.109 234.793V292.36V292.366ZM558.247 205.075L608.109 176.289V233.856L558.247 205.07V205.075ZM608.647 117.78L658.509 146.566L608.647 175.352V117.785V117.78ZM608.647 116.811V59.2438L658.509 88.0301L608.647 116.816V116.811ZM557.975 87.5564V29.9891L607.838 58.7754L557.975 87.5618V87.5564ZM557.432 87.5564L507.57 58.7701L557.432 29.9838V87.5511V87.5564ZM456.622 87.5564V29.9891L506.484 58.7754L456.622 87.5618V87.5564ZM456.079 87.5564L406.217 58.7701L456.079 29.9838V87.5511V87.5564ZM355.269 87.5564V29.9891L405.131 58.7754L355.269 87.5618V87.5564ZM354.731 87.5564L304.869 58.7701L354.731 29.9838V87.5511V87.5564ZM253.921 87.5564V29.9891L303.783 58.7754L253.921 87.5618V87.5564ZM253.378 87.5564L203.516 58.7701L253.378 29.9838V87.5511V87.5564ZM152.568 87.5564V29.9891L202.43 58.7754L152.568 87.5618V87.5564ZM152.025 87.5564L102.162 58.7701L152.025 29.9838V87.5511V87.5564ZM101.353 116.811L51.491 88.0248L101.353 59.2384V116.806V116.811ZM101.082 117.311L51.2196 146.098V88.5304L101.082 117.317V117.311ZM101.082 175.821L51.2196 204.607V147.04L101.082 175.826V175.821ZM101.082 234.33L51.2196 263.116V205.549L101.082 234.335V234.33ZM101.082 292.866L51.2196 321.652V264.085L101.082 292.871V292.866ZM101.082 351.375L51.2196 380.162V322.594L101.082 351.381V351.375ZM101.082 409.885L51.2196 438.671V381.104L101.082 409.89V409.885ZM101.082 468.421L51.2196 497.207V439.64L101.082 468.426V468.421ZM101.082 526.93L51.2196 555.716V498.149L101.082 526.935V526.93ZM101.082 585.439L51.2196 614.226V556.658L101.082 585.445V585.439ZM101.082 643.975L51.2196 672.762V615.194L101.082 643.981V643.975ZM101.348 644.449V702.016L51.4857 673.23L101.348 644.444V644.449ZM101.891 644.449L151.753 673.235L101.891 702.022V644.454V644.449ZM202.701 644.444V702.011L152.839 673.225L202.701 644.438V644.444ZM203.244 644.444L253.106 673.23L203.244 702.016V644.449V644.444ZM304.055 644.444V702.011L254.192 673.225L304.055 644.438V644.444ZM304.597 644.444L354.46 673.23L304.597 702.016V644.449V644.444ZM405.402 644.444V702.011L355.54 673.225L405.402 644.438V644.444ZM405.945 644.444L455.808 673.23L405.945 702.016V644.449V644.444ZM506.756 644.444V702.011L456.894 673.225L506.756 644.438V644.444ZM507.299 644.444L557.161 673.23L507.299 702.016V644.449V644.444ZM608.109 644.444V702.011L558.247 673.225L608.109 644.438V644.444ZM608.647 644.444L658.509 673.23L608.647 702.016V644.449V644.444ZM608.647 643.475V585.908L658.509 614.694L608.647 643.48V643.475ZM608.647 527.398L658.509 556.185L608.647 584.971V527.404V527.398ZM608.918 526.93L658.78 498.144V555.711L608.918 526.925V526.93ZM608.647 467.92V410.353L658.509 439.139L608.647 467.926V467.92ZM608.647 351.844L658.509 380.63L608.647 409.416V351.849V351.844ZM608.918 351.375L658.78 322.589V380.156L608.918 351.37V351.375ZM608.647 292.366V234.798L658.509 263.585L608.647 292.371V292.366ZM608.647 176.289L658.509 205.075L608.647 233.862V176.294V176.289ZM608.918 175.821L658.78 147.034V204.602L608.918 175.815V175.821ZM659.323 88.5304L709.186 117.317L659.323 146.103V88.5357V88.5304ZM658.78 87.5564L608.918 58.7701L658.78 29.9838V87.5511V87.5564ZM608.647 58.3018V0.734427L658.509 29.5208L608.647 58.3071V58.3018ZM608.109 58.3018L558.247 29.5154L608.109 0.734427V58.3018ZM507.299 58.3018V0.734427L557.161 29.5208L507.299 58.3071V58.3018ZM506.756 58.3018L456.894 29.5154L506.756 0.734427V58.3018ZM405.945 58.3018V0.734427L455.808 29.5208L405.945 58.3071V58.3018ZM405.402 58.3018L355.54 29.5154L405.402 0.734427V58.3018ZM304.597 58.3018V0.734427L354.46 29.5208L304.597 58.3071V58.3018ZM304.055 58.3018L254.192 29.5154L304.055 0.734427V58.3018ZM203.244 58.3018V0.734427L253.106 29.5208L203.244 58.3071V58.3018ZM202.701 58.3018L152.839 29.5154L202.701 0.734427V58.3018ZM101.896 58.3018V0.734427L151.758 29.5208L101.896 58.3071V58.3018ZM101.353 58.3018L51.491 29.5154L101.353 0.734427V58.3018ZM101.082 58.7754L51.2196 87.5618V29.9891L101.082 58.7754ZM50.6766 146.098L0.814361 117.311L50.6766 88.525V146.092V146.098ZM50.6766 147.034V204.602L0.814361 175.821L50.6766 147.034ZM50.6766 321.652L0.814361 292.866L50.6766 264.08V321.647V321.652ZM50.6766 322.589V380.156L0.814361 351.375L50.6766 322.589ZM50.6766 497.207L0.814361 468.421L50.6766 439.634V497.202V497.207ZM50.6766 498.144V555.711L0.814361 526.93L50.6766 498.144ZM50.6766 672.762L0.814361 643.975L50.6766 615.189V672.756V672.762ZM50.6766 673.698V731.266L0.814361 702.485L50.6766 673.698ZM51.2196 673.698L101.082 702.485L51.2196 731.271V673.704V673.698ZM152.025 673.698V731.266L102.162 702.479L152.025 673.693V673.698ZM152.568 673.698L202.43 702.485L152.568 731.271V673.704V673.698ZM253.378 673.698V731.266L203.516 702.479L253.378 673.693V673.698ZM253.921 673.698L303.783 702.485L253.921 731.271V673.704V673.698ZM354.731 673.698V731.266L304.869 702.479L354.731 673.693V673.698ZM355.269 673.698L405.131 702.485L355.269 731.271V673.704V673.698ZM456.079 673.698V731.266L406.217 702.479L456.079 673.693V673.698ZM456.622 673.698L506.484 702.485L456.622 731.271V673.704V673.698ZM557.432 673.698V731.266L507.57 702.479L557.432 673.693V673.698ZM557.975 673.698L607.838 702.485L557.975 731.271V673.704V673.698ZM658.78 673.698V731.266L608.918 702.479L658.78 673.693V673.698ZM659.323 673.698L709.186 702.485L659.323 731.271V673.704V673.698ZM659.323 672.762V615.194L709.186 643.981L659.323 672.767V672.762ZM658.78 614.22L608.918 585.434L658.78 556.648V614.215V614.22ZM659.323 498.144L709.186 526.93L659.323 555.716V498.149V498.144ZM659.323 497.207V439.64L709.186 468.426L659.323 497.212V497.207ZM658.78 438.666L608.918 409.879L658.78 381.093V438.66V438.666ZM659.323 322.589L709.186 351.375L659.323 380.162V322.594V322.589ZM659.323 321.652V264.085L709.186 292.871L659.323 321.658V321.652ZM658.78 263.111L608.918 234.325L658.78 205.538V263.106V263.111ZM659.323 147.034L709.186 175.821L659.323 204.607V147.04V147.034ZM659.595 146.566L709.457 117.78V175.347L659.595 146.561V146.566Z" fill="url(#paint0_radial_33959_1457)" fill-opacity="0.5"/>
<defs>
<radialGradient id="paint0_radial_33959_1457" cx="0" cy="0" r="1" gradientUnits="userSpaceOnUse" gradientTransform="translate(355 366) rotate(90) scale(366 355)">
<stop stop-color="#333333" stop-opacity="0.7"/>
<stop offset="1" stop-color="#999999" stop-opacity="0.4"/>
</radialGradient>
</defs>
</svg>
